<?xml version="1.0" encoding="UTF-8" standalone="no"?>
<!-- Created with Inkscape (http://www.inkscape.org/) -->

<svg xmlns:dc="http://purl.org/dc/elements/1.1/" xmlns:cc="http://creativecommons.org/ns#" xmlns:rdf="http://www.w3.org/1999/02/22-rdf-syntax-ns#" xmlns:svg="http://www.w3.org/2000/svg" xmlns="http://www.w3.org/2000/svg" version="1.1" width="366.5625" height="512" id="svg4779">
<defs id="defs4781" />
<metadata id="metadata4784">
<rdf:RDF>
<cc:Work rdf:about="">
<dc:format>image/svg+xml</dc:format>
<dc:type rdf:resource="http://purl.org/dc/dcmitype/StillImage" />
<dc:title></dc:title>
</cc:Work>
</rdf:RDF>
</metadata>
<g transform="translate(-401.3125,3521.9063)" id="layer1">
<path d="m 425.51925,-3011.3975 318.13236,0 c 12.39913,0 22.72241,-10.3171 22.72241,-22.7224 l 0,-463.572 c -0.005,-12.4053 -10.32328,-22.7224 -22.72241,-22.7224 l -318.13236,0 c -12.41156,0 -22.72863,10.3171 -22.72863,22.7224 l 0,463.572 c 0,13.3003 10.35436,21.4729 22.72863,22.7224" id="path3212" style="fill:#ffffff;fill-opacity:1;fill-rule:nonzero;stroke:#000000;stroke-width:2.98324847;stroke-linecap:butt;stroke-linejoin:miter;stroke-miterlimit:4;stroke-opacity:1;stroke-dasharray:none" />
<path d="m 751.05379,-3034.1204 c 0,4.0025 -3.40587,7.3959 -7.40218,7.4521 l -318.13236,0 c -4.05846,0 -7.41462,-3.4496 -7.41462,-7.4521 l 0,-324.6023 c 0,-4.0642 3.35616,-7.3836 7.41462,-7.4084 l 318.13236,0 c 4.02739,0 7.38975,3.3999 7.40218,7.4084 l 0,324.6023 z m -7.40218,-480.5203 -318.13236,0 c -9.26672,0 -16.96101,7.6943 -16.96101,16.9483 l 0,463.572 c 0,9.2545 7.70051,16.9488 16.96101,16.9488 l 318.13236,0 c 9.24807,0 16.94858,-7.7008 16.94858,-16.9488 l 0,-463.572 c 0,-9.254 -7.70051,-16.9483 -16.94858,-16.9483" id="path3216" style="fill:#000000;fill-opacity:1;fill-rule:evenodd;stroke:none" />
<path d="m 730.05297,-3300.9576 -6.43884,0 -8.37796,13.3565 -8.25987,-13.3565 -6.55693,0 12.14431,19.5527 0,15.047 5.46928,0 0,-15.047 12.02001,-19.5527 z m -25.01578,34.5997 0,-5.0904 -16.03496,0 0,-29.5093 -5.46307,0 0,34.5997 21.49803,0 z m -29.62739,0 0,-34.5997 -5.46307,0 0,22.1009 -12.62908,-22.1009 -5.46308,0 0,34.5997 5.46308,0 0,-23.4309 13.23816,23.4309 4.85399,0 z m -36.551,-17.2347 c 0,2.679 -0.60908,6.0724 -1.33004,7.8872 -1.21816,3.039 -2.79679,4.3814 -5.33877,4.3814 -2.19393,0 -3.64826,-0.8577 -4.74212,-2.6784 -1.33625,-2.1818 -2.06963,-5.9541 -2.06963,-9.5902 0,-2.9146 0.49124,-6.0719 1.34246,-8.1353 1.21195,-3.0394 2.90867,-4.3754 5.58116,-4.2511 2.0572,0.1193 3.39966,0.8512 4.49352,2.6784 1.34246,2.2996 2.06342,5.8238 2.06342,9.708 m 5.46928,0 c 0,-4.3754 -0.85768,-8.7384 -2.31201,-11.7774 -2.18772,-4.2575 -5.22069,-6.1967 -9.5899,-6.1967 -4.00874,0 -6.79932,1.2182 -8.86274,3.8847 -2.3058,3.2816 -3.76635,8.378 -3.76635,14.0894 0,4.1268 0.97577,8.7384 2.42389,11.6595 2.06963,4.2452 5.1026,6.2092 9.96902,6.2092 3.63584,0 6.42642,-1.2371 8.36553,-3.9096 2.4301,-3.0329 3.77256,-8.4958 3.77256,-13.9591 m -43.7108,3.033 0,-5.5812 -8.86895,0 0,-8.6265 -5.46307,0 0,8.6265 -8.86895,0 0,5.5812 8.86895,0 0,8.6265 5.46307,0 0,-8.6265 8.86895,0 z m -27.68827,14.2017 0,-5.5752 -16.9983,0 c 1.69672,-3.8906 3.52396,-5.954 6.79932,-7.8991 l 1.69672,-0.9696 1.82102,-0.9695 1.70294,-1.0939 c 0.48478,-0.2486 0.96956,-0.609 1.45434,-0.9695 2.3058,-2.0634 3.52396,-4.7359 3.52396,-7.4084 0,-5.7055 -5.22069,-10.3236 -11.77762,-10.3236 -6.07837,0 -10.56567,3.5302 -11.78383,9.2357 l 5.46929,1.2057 c 0.60908,-3.1573 2.79058,-4.8537 6.31454,-4.8537 3.39966,0 6.31454,2.0693 6.31454,4.6116 0,1.4543 -0.97577,2.9211 -2.31201,3.7663 l -1.69673,0.9696 -1.69672,0.9695 -1.82102,0.9696 c -0.48478,0.3729 -0.97577,0.7334 -1.57864,1.0998 -2.4301,1.8213 -4.6116,4.0025 -6.07215,6.675 -1.94533,3.2816 -2.7968,6.5632 -2.9211,10.5597 l 23.56145,0 z m -47.60146,-34.5997 -5.82355,0 -7.2841,23.0705 -7.4084,-23.0705 -5.70546,0 10.91993,34.5997 4.25735,0 11.04423,-34.5997 z m -36.18432,17.365 c 0,2.679 -0.60908,6.0724 -1.33624,7.8872 -1.21195,3.039 -2.79058,4.3814 -5.33877,4.3814 -2.18772,0 -3.64205,-0.8577 -4.74213,-2.6784 -1.33003,-2.1818 -2.05719,-5.9541 -2.05719,-9.5902 0,-2.9146 0.47831,-6.0719 1.33624,-8.1353 1.20573,-3.0394 2.91488,-4.3754 5.58116,-4.2511 2.06342,0.1193 3.39966,0.8512 4.49352,2.6784 1.33625,2.2996 2.06341,5.8238 2.06341,9.708 m 5.46929,0 c 0,-4.3754 -0.85768,-8.7384 -2.3058,-11.7774 -2.19393,-4.2575 -5.2269,-6.1967 -9.59612,-6.1967 -4.00874,0 -6.79932,1.2182 -8.86894,3.8847 -2.29959,3.2816 -3.75392,8.378 -3.75392,14.0894 0,4.1268 0.96955,8.7384 2.42388,11.6595 2.0572,4.2452 5.1026,6.2092 9.9566,6.2092 3.64204,0 6.43263,-1.2371 8.37795,-3.9096 2.42389,-3.0329 3.76635,-8.4958 3.76635,-13.9591 m -31.9394,17.2347 0,-34.5997 -5.46307,0 0,13.9656 -12.62909,0 0,-13.9656 -5.46307,0 0,34.5997 5.46307,0 0,-15.047 12.62909,0 0,15.047 5.46307,0 z" id="path3224" style="fill:#000000;fill-opacity:1;fill-rule:evenodd;stroke:none" />
<path d="m 706.54746,-3207.3731 0,-5.5811 -16.03496,0 0,-9.4718 10.08089,0 0,-5.5872 -10.08089,0 0,-8.5022 14.93489,0 0,-5.4634 -20.39175,0 0,34.6057 21.49182,0 z m -33.39995,-24.8977 c 0,1.4608 -0.84526,2.9211 -2.18772,3.6485 -0.85768,0.4774 -1.44812,0.6091 -3.15727,0.6091 l -6.55072,0 0,-8.5022 6.55072,0 c 1.82102,0 2.29959,0.1243 3.15727,0.6026 1.34246,0.7274 2.18772,2.1942 2.18772,3.642 m 6.19024,24.8977 -6.06594,-16.1528 c 3.15727,-1.4608 5.33877,-5.0964 5.33877,-8.7449 0,-3.5113 -2.1815,-7.1598 -5.21447,-8.6201 -1.70294,-0.8452 -3.53018,-1.0879 -6.20267,-1.0879 l -11.40471,0 0,34.6057 5.46307,0 0,-15.0529 6.55072,0 5.59359,15.0529 5.94164,0 z m -36.5448,-17.2407 c 0,2.6666 -0.60908,6.0724 -1.33624,7.8872 -1.21195,3.039 -2.79058,4.3755 -5.34499,4.3755 -2.1815,0 -3.64205,-0.8517 -4.73591,-2.6665 -1.33003,-2.1878 -2.06341,-5.9541 -2.06341,-9.5962 0,-2.9211 0.48478,-6.0783 1.33625,-8.1353 1.21816,-3.033 2.91488,-4.3754 5.58737,-4.2511 2.06342,0.1243 3.39966,0.8452 4.49352,2.6725 1.33625,2.2996 2.06341,5.8297 2.06341,9.7139 m 5.46929,0 c 0,-4.3754 -0.85768,-8.7444 -2.31201,-11.7773 -2.18772,-4.2576 -5.22069,-6.1967 -9.5899,-6.1967 -4.00874,0 -6.79932,1.2122 -8.86895,3.8847 -2.30581,3.2751 -3.76635,8.3779 -3.76635,14.0893 0,4.1269 0.97577,8.7385 2.4301,11.6596 2.06341,4.2451 5.1026,6.2091 9.95659,6.2091 3.64205,0 6.44506,-1.2371 8.38417,-3.9031 2.42389,-3.0394 3.76635,-8.5087 3.76635,-13.9656 m -32.0637,17.2407 0,-34.6057 -5.46307,0 -8.01748,19.4284 -8.01127,-19.4284 -5.46307,0 0,34.6057 5.46307,0 0,-20.0375 8.01127,20.0375 8.01748,-20.0375 0,20.0375 5.46307,0 z m -56.0975,-24.8977 c 0,1.4608 -0.85147,2.9211 -2.18772,3.6485 -0.84525,0.4774 -1.45433,0.6091 -3.15105,0.6091 l -6.56315,0 0,-8.5022 6.56315,0 c 1.82102,0 2.3058,0.1243 3.15105,0.6026 1.33625,0.7274 2.18772,2.1942 2.18772,3.642 m 6.19024,24.8977 -6.06594,-16.1528 c 3.15106,-1.4608 5.34499,-5.0964 5.34499,-8.7449 0,-3.5113 -2.19393,-7.1598 -5.2269,-8.6201 -1.69672,-0.8452 -3.51775,-1.0879 -6.19024,-1.0879 l -11.41093,0 0,34.6057 5.45686,0 0,-15.0529 6.56315,0 5.58116,15.0529 5.94785,0 z m -36.54479,-17.2407 c 0,2.6666 -0.60287,6.0724 -1.33625,7.8872 -1.21194,3.039 -2.79058,4.3755 -5.34499,4.3755 -2.1815,0 -3.64205,-0.8517 -4.7359,-2.6665 -1.33625,-2.1878 -2.06342,-5.9541 -2.06342,-9.5962 0,-2.9211 0.48478,-6.0783 1.33625,-8.1353 1.21195,-3.033 2.91488,-4.3754 5.58738,-4.2511 2.06341,0.1243 3.39966,0.8452 4.49351,2.6725 1.33004,2.2996 2.06342,5.8297 2.06342,9.7139 m 5.46307,0 c 0,-4.3754 -0.85147,-8.7444 -2.3058,-11.7773 -2.18772,-4.2576 -5.22069,-6.1967 -9.5899,-6.1967 -4.00874,0 -6.80554,1.2122 -8.86895,3.8847 -2.3058,3.2751 -3.76014,8.3779 -3.76014,14.0893 0,4.1269 0.96956,8.7385 2.42389,11.6596 2.06963,4.2451 5.1026,6.2091 9.95659,6.2091 3.64205,0 6.43263,-1.2371 8.38417,-3.9031 2.42389,-3.0394 3.76014,-8.5087 3.76014,-13.9656 m -48.5648,17.2407 0,-5.5811 -17.00451,0 c 1.70294,-3.8907 3.52396,-5.9541 6.79932,-7.8932 l 1.70915,-0.9696 1.8086,-0.9755 1.70915,-1.0938 c 0.47831,-0.2437 0.96334,-0.6091 1.45433,-0.9696 2.3058,-2.0699 3.52396,-4.7359 3.52396,-7.4149 0,-5.699 -5.2269,-10.317 -11.78383,-10.317 -6.06594,0 -10.56567,3.5177 -11.7714,9.2296 l 5.46308,1.2182 c 0.60286,-3.1573 2.79058,-4.8602 6.30832,-4.8602 3.39966,0 6.32076,2.0634 6.32076,4.6176 0,1.4543 -0.96956,2.9086 -2.31202,3.7603 l -1.69672,0.9696 -1.70294,0.9755 -1.82102,0.9696 c -0.48478,0.3629 -0.96956,0.7209 -1.57864,1.0938 -2.4301,1.8213 -4.6116,4.0026 -6.07215,6.6751 -1.93911,3.2756 -2.79058,6.5571 -2.90867,10.5656 l 23.55523,0 z" id="path3228" style="fill:#000000;fill-opacity:1;fill-rule:evenodd;stroke:none" />
<path d="m 682.94251,-3158.5269 c 0,-13.5986 -16.27114,-9.3475 -16.76213,-15.7799 -0.24264,-3.1572 2.79679,-4.1268 5.34499,-4.0149 3.89065,0.1243 5.10259,3.0454 5.10259,3.0454 l 4.854,-1.4608 c -1.69673,-4.2447 -4.97208,-7.0415 -9.83851,-7.0415 -6.19645,0 -10.80184,2.5482 -10.80184,9.3411 0,5.7179 4.60539,7.7753 6.67502,8.6265 4.49351,1.8273 9.8385,2.5482 9.8385,7.1663 0,2.9087 -2.18772,5.1024 -5.34499,5.1024 -3.26914,0 -5.94163,-1.8268 -7.4084,-5.1024 l -5.21447,1.9451 c 2.31202,5.2207 6.68124,8.7573 12.62287,8.7573 2.9211,0 5.58738,-0.9884 7.53271,-2.6849 2.1815,-1.9451 3.39966,-4.7419 3.39966,-7.8997 m -29.2607,9.9631 0,-34.6121 -5.46929,0 0,22.1009 -12.62287,-22.1009 -5.46307,0 0,34.6121 5.46307,0 0,-23.4374 13.23195,23.4374 4.86021,0 z m -36.55101,-17.2472 c 0,2.673 -0.60908,6.0784 -1.33624,7.8932 -1.21195,3.0395 -2.79058,4.3755 -5.33877,4.3755 -2.18772,0 -3.64205,-0.8513 -4.74213,-2.6725 -1.33624,-2.1813 -2.05719,-5.9541 -2.05719,-9.5962 0,-2.9086 0.47831,-6.0719 1.33003,-8.1293 1.21816,-3.0389 2.91488,-4.3814 5.58737,-4.2571 2.06342,0.1293 3.39966,0.8512 4.49352,2.6785 1.34246,2.306 2.06341,5.8238 2.06341,9.7079 m 5.46308,0 c 0,-4.3689 -0.85769,-8.7384 -2.3058,-11.7773 -2.18772,-4.2512 -5.22069,-6.1903 -9.59612,-6.1903 -4.00253,0 -6.79932,1.2182 -8.86273,3.8842 -2.30581,3.2756 -3.76636,8.378 -3.76636,14.0834 0,4.1269 0.97578,8.7449 2.43632,11.6536 2.0572,4.2571 5.09639,6.2151 9.9566,6.2151 3.64204,0 6.43262,-1.2306 8.37174,-3.9031 2.4301,-3.0329 3.76635,-8.4963 3.76635,-13.9656 m -29.50309,7.2841 c 0,-13.5986 -16.27734,-9.3475 -16.76212,-15.7799 -0.24264,-3.1572 2.79679,-4.1268 5.34498,-4.0149 3.88444,0.1243 5.09639,3.0454 5.09639,3.0454 l 4.86021,-1.4608 c -1.69673,-4.2447 -4.9783,-7.0415 -9.83229,-7.0415 -6.19646,0 -10.80806,2.5482 -10.80806,9.3411 0,5.7179 4.6116,7.7753 6.67501,8.6265 4.49352,1.8273 9.83851,2.5482 9.83851,7.1663 0,2.9087 -2.1815,5.1024 -5.34499,5.1024 -3.27536,0 -5.94785,-1.8268 -7.4084,-5.1024 l -5.21447,1.9451 c 2.3058,5.2207 6.67502,8.7573 12.62287,8.7573 2.9211,0 5.58738,-0.9884 7.5327,-2.6849 2.1815,-1.9451 3.39966,-4.7419 3.39966,-7.8997 m -33.03326,-14.9346 c 0,1.4603 -0.85147,2.9146 -2.1815,3.648 -0.85147,0.4923 -1.46055,0.6031 -3.15727,0.6031 l -6.55693,0 0,-8.4963 6.55693,0 c 1.82724,0 2.3058,0.1194 3.15727,0.6091 1.33003,0.7274 2.1815,2.1818 2.1815,3.6361 m 6.19646,24.8977 -6.07215,-16.1533 c 3.15727,-1.4479 5.34498,-5.0964 5.34498,-8.7444 0,-3.5177 -2.18771,-7.1598 -5.2269,-8.6206 -1.69672,-0.8512 -3.51774,-1.0938 -6.19024,-1.0938 l -11.41092,0 0,34.6121 5.46307,0 0,-15.0594 6.55693,0 5.58116,15.0594 5.95407,0 z m -29.26691,0 0,-5.5936 -16.02253,0 0,-9.4658 10.07468,0 0,-5.5872 -10.07468,0 0,-8.4963 14.92867,0 0,-5.4692 -20.39796,0 0,34.6121 21.49182,0 z m -32.16936,-24.8977 c 0,1.4603 -0.85147,3.0389 -2.06963,3.648 -0.97577,0.4923 -1.57242,0.6031 -3.27536,0.6031 l -7.16601,0 0,-8.4963 7.16601,0 c 1.70294,0 2.29959,0.1194 3.27536,0.6091 1.21816,0.7274 2.06963,2.1818 2.06963,3.6361 m 5.58116,0 c 0,-3.5177 -2.3058,-7.1598 -5.33877,-8.6206 -1.70916,-0.8512 -3.52397,-1.0938 -6.32076,-1.0938 l -11.8957,0 0,34.6121 5.46307,0 0,-15.0594 6.43263,0 c 2.67249,0 4.74212,-0.4873 6.32076,-1.2182 3.03297,-1.3236 5.33877,-4.9721 5.33877,-8.6201" id="path3232" style="fill:#000000;fill-opacity:1;fill-rule:evenodd;stroke:none" />
<path d="m 725.58367,-3089.59 0,-5.5811 -16.02875,0 0,-9.4718 10.08711,0 0,-5.5812 -10.08711,0 0,-8.5022 14.93489,0 0,-5.4634 -20.39175,0 0,34.5997 21.48561,0 z m -26.58821,0 0,-5.0904 -16.02874,0 0,-29.5093 -5.45686,0 0,34.5997 21.4856,0 z m -29.0183,-7.0419 -5.2269,-1.9391 c -1.33003,2.7908 -3.03297,4.0025 -5.33877,4.0025 -2.43011,0 -4.00874,-0.8453 -5.22069,-2.6601 -1.33624,-2.2001 -2.18771,-5.954 -2.18771,-9.7204 0,-2.9211 0.49074,-5.954 1.33624,-8.011 1.21195,-3.0394 3.03297,-4.2576 5.82977,-4.2576 2.67249,0 3.76635,0.7334 5.70546,3.6421 l 5.1026,-2.1813 c -2.3058,-4.8542 -5.59359,-7.0479 -10.80806,-7.0479 -3.89065,0 -6.79932,1.3424 -8.86895,3.8906 -2.42389,3.033 -3.87822,8.4958 -3.87822,13.9651 0,4.363 0.96955,8.7385 2.54819,11.7779 2.1815,4.2511 5.46929,6.2151 10.55945,6.2151 4.98452,0 8.37796,-2.5671 10.44759,-7.6759 m -30.96985,-27.5578 -5.58116,0 0,34.5997 5.58116,0 0,-34.5997 z m -13.72294,34.5997 0,-34.5997 -5.45686,0 0,13.9656 -12.62287,0 0,-13.9656 -5.46929,0 0,34.5997 5.46929,0 0,-15.0529 12.62287,0 0,15.0529 5.45686,0 z m -29.26069,0 0,-5.5811 -16.02875,0 0,-9.4718 10.08711,0 0,-5.5812 -10.08711,0 0,-8.5022 14.9411,0 0,-5.4634 -20.39796,0 0,34.5997 21.48561,0 z m -26.58821,-34.5997 -5.82976,0 -7.27788,23.0705 -7.41462,-23.0705 -5.70546,0 10.92615,34.5997 4.25734,0 11.04423,-34.5997 z m -52.33736,9.708 c 0,1.4608 -0.84525,2.9151 -2.1815,3.6421 -0.84525,0.4823 -1.45433,0.6155 -3.15727,0.6155 l -6.55693,0 0,-8.5022 6.55693,0 c 1.82724,0 2.31202,0.1193 3.15727,0.5966 1.33625,0.7334 2.1815,2.2001 2.1815,3.648 m 6.19646,24.8917 -6.06594,-16.1533 c 3.15105,-1.4543 5.33877,-5.0963 5.33877,-8.7384 0,-3.5177 -2.18772,-7.1657 -5.22069,-8.6201 -1.69672,-0.8517 -3.52396,-1.0879 -6.19645,-1.0879 l -11.41093,0 0,34.5997 5.46308,0 0,-15.0529 6.55693,0 5.58737,15.0529 5.94786,0 z m -29.26691,0 0,-5.5811 -16.02253,0 0,-9.4718 10.07468,0 0,-5.5812 -10.07468,0 0,-8.5022 14.92867,0 0,-5.4634 -20.39175,0 0,34.5997 21.48561,0 z m -32.16936,-24.8917 c 0,1.4608 -0.85147,3.033 -2.06963,3.6421 -0.96956,0.4823 -1.57864,0.6155 -3.27536,0.6155 l -7.16601,0 0,-8.5022 7.16601,0 c 1.69672,0 2.3058,0.1193 3.27536,0.5966 1.21816,0.7334 2.06963,2.2001 2.06963,3.648 m 5.58116,0 c 0,-3.5177 -2.30581,-7.1657 -5.34499,-8.6201 -1.69672,-0.8517 -3.51775,-1.0879 -6.30833,-1.0879 l -11.90192,0 0,34.5997 5.46308,0 0,-15.0529 6.43884,0 c 2.6725,0 4.73591,-0.4923 6.30833,-1.2182 3.03918,-1.3365 5.34499,-4.9785 5.34499,-8.6206" id="path3236" style="fill:#000000;fill-opacity:1;fill-rule:evenodd;stroke:none" />
<path d="m 584.58232,-3501.7531 30.29862,60.5973 -30.29862,60.5972 -30.29861,-60.5972 30.29861,-60.5973 z m 0,19.3598 20.62171,41.2375 -20.62171,41.2434 -20.6217,-41.2434 20.6217,-41.2375 z" id="path3220" style="fill:#ffffff;fill-opacity:1;fill-rule:evenodd;stroke:none" />
</g>
</svg>
