<svg xmlns="http://www.w3.org/2000/svg" width="413.303" height="512" viewBox="0 0 413.30264 512"><path d="M26.732 509.919c-13.593 0-24.651-11.058-24.651-24.651v-458.538c0-13.591 11.058-24.649 24.651-24.649h359.838c13.591 0 24.651 11.058 24.651 24.649v458.538c0 13.591-11.058 24.651-24.651 24.651h-359.838z" fill="#fff"/><path d="M386.568 4.163c12.444 0 22.57 10.123 22.57 22.568v458.538c0 12.444-10.123 22.57-22.57 22.57h-359.836c-12.444 0-22.57-10.123-22.57-22.57v-458.538c0-12.444 10.123-22.568 22.57-22.568h359.836m0-4.163h-359.836c-14.74 0-26.732 11.99-26.732 26.73v458.538c0 14.74 11.992 26.732 26.732 26.732h359.838c14.74 0 26.732-11.992 26.732-26.732v-458.538c-.002-14.74-11.995-26.73-26.734-26.73z" fill="#9b9b9b"/><path d="M386.568 24.774c1.08 0 1.956.876 1.956 1.954v458.538c0 1.08-.878 1.956-1.956 1.956h-359.836c-1.08 0-1.956-.878-1.956-1.956v-458.536c0-1.078.878-1.954 1.956-1.954h359.836m0-8.327h-359.836c-5.68 0-10.282 4.604-10.282 10.28v458.538c0 5.68 4.604 10.282 10.282 10.282h359.838c5.68 0 10.282-4.604 10.282-10.282v-458.536c0-5.678-4.604-10.282-10.284-10.282z" fill="#010101"/></svg>