<?xml version="1.0" encoding="utf-8"?>
<!-- Generator: Adobe Illustrator 15.0.2, SVG Export Plug-In . SVG Version: 6.00 Build 0)  -->
<!DOCTYPE svg PUBLIC "-//W3C//DTD SVG 1.1//EN" "http://www.w3.org/Graphics/SVG/1.1/DTD/svg11.dtd">
<svg version="1.1"
	 id="svg2" inkscape:version="0.48.2 r9819" sodipodi:docname="AJAX1.svg" xmlns:dc="http://purl.org/dc/elements/1.1/" xmlns:cc="http://creativecommons.org/ns#" xmlns:rdf="http://www.w3.org/1999/02/22-rdf-syntax-ns#" xmlns:svg="http://www.w3.org/2000/svg" xmlns:sodipodi="http://sodipodi.sourceforge.net/DTD/sodipodi-0.dtd" xmlns:inkscape="http://www.inkscape.org/namespaces/inkscape"
	 xmlns="http://www.w3.org/2000/svg" xmlns:xlink="http://www.w3.org/1999/xlink" x="0px" y="0px" width="512px" height="512px"
	 viewBox="0 0 90 89.994" enable-background="new 0 0 90 89.994" xml:space="preserve">
<sodipodi:namedview  id="namedview58" inkscape:current-layer="svg2" inkscape:window-y="-8" inkscape:window-x="-8" fit-margin-bottom="0" fit-margin-right="0" inkscape:window-height="1004" inkscape:window-width="1280" inkscape:pageshadow="2" inkscape:pageopacity="0" inkscape:window-maximized="1" inkscape:cy="67.359543" inkscape:cx="81.857344" bordercolor="#666666" inkscape:zoom="4" pagecolor="#ffffff" guidetolerance="10" gridtolerance="10" fit-margin-left="0" objecttolerance="10" fit-margin-top="0" borderopacity="1" showgrid="false">
	</sodipodi:namedview>
<path id="path6190" inkscape:connector-curvature="0" fill="#FFD520" d="M42.085,1.208L1.216,42.079C0.446,42.844,0,43.907,0,44.996
	c0,1.087,0.446,2.149,1.216,2.918l40.869,40.871c0.771,0.769,1.828,1.211,2.921,1.209c1.085-0.005,2.148-0.442,2.917-1.209
	l40.867-40.871C89.557,47.151,90,46.077,90,44.996s-0.443-2.156-1.209-2.917L47.924,1.208c-0.991-0.991-2.484-1.414-3.848-1.111
	C43.289,0.275,42.705,0.709,42.085,1.208"/>
<path id="path6198" inkscape:connector-curvature="0" d="M47.105,2.025l40.867,40.868c0.555,0.558,0.871,1.319,0.871,2.103
	c0,0.784-0.316,1.543-0.871,2.1L47.105,87.972c-0.551,0.549-1.324,0.861-2.101,0.861c-0.778,0-1.549-0.313-2.1-0.861L2.027,47.095
	c-0.549-0.552-0.863-1.32-0.863-2.1c0-0.778,0.314-1.55,0.863-2.103L42.904,2.025c0.556-0.554,1.316-0.869,2.1-0.869
	S46.549,1.471,47.105,2.025"/>
<path id="path6202" inkscape:connector-curvature="0" fill="#FFD520" d="M45,86.963c0.292-0.003,0.58-0.114,0.781-0.313
	l40.875-40.875C86.852,45.579,87,45.269,87,44.994c0-0.281-0.146-0.583-0.344-0.781L45.781,3.338c-0.198-0.2-0.5-0.313-0.781-0.313
	c-0.277,0-0.587,0.115-0.781,0.313L3.344,44.213c-0.197,0.198-0.313,0.499-0.313,0.781c0,0.275,0.117,0.585,0.313,0.781
	L44.219,86.65C44.42,86.848,44.711,86.963,45,86.963z"/>
<g>
	<path id="path6690" inkscape:connector-curvature="0" d="M27.758,35.313c-0.692,0.028-1.37,0.802-1.9,2.202h-5.701v0.604
		l1.055,0.06v5.459l-1.508,2.202v6.728h2.956c0.228,4.768,7.191,4.92,8.025,0h24.041c0.227,5.524,7.417,4.768,8.021,0h10.288
		l-1.961-9.926h-2.202v-0.814h3.408v-0.994h-0.966v-2.113h0.966v-0.995H42.146v0.995h0.602v2.113h-0.602v0.994h3.016v0.814h-3.62
		v-4.915h-2.444v11.824h-4.313V37.514h-5.068C29.151,36.001,28.449,35.284,27.758,35.313z M43.715,38.782h1.387v2.051h-1.387V38.782
		z M45.917,38.782h1.358v2.051h-1.358V38.782z M48.208,38.782h1.358v2.051h-1.358V38.782z M50.623,38.782h1.357v2.051h-1.357V38.782
		z M52.884,38.782h1.358v2.051h-1.358V38.782z M55.177,38.782h1.358v2.051h-1.358V38.782z M57.44,38.782h1.356v2.051H57.44V38.782z
		 M59.551,38.782h1.357v2.051h-1.357V38.782z M61.904,38.782h1.355v2.051h-1.355V38.782z M64.167,38.782h1.386v2.051h-1.386V38.782z
		 M66.52,38.782h1.387v2.051H66.52V38.782z M68.813,38.782h1.356v2.051h-1.356V38.782z M25.767,39.687h2.956v5.398h-2.956V39.687z
		 M29.417,39.687h2.955v5.398h-2.955V39.687z M21.846,39.776h3.107v5.37H22.6l-0.754,0.543V39.776z"/>
	<path id="path6694" inkscape:connector-curvature="0" fill="#C0111E" d="M29.938,36.972c-1.289-2.798-3.333-2.874-4.395,0h-3.561
		l1.895-1.665c0.682-0.529,0.682-0.756,0.075-1.059l-3.257-1.59l3.408-0.455c0.682-0.074,0.834-0.454,0.455-1.134l-1.213-2.196
		l2.047,1.439c0.605,0.605,1.06,0.455,1.287-0.453l1.289-3.936l0.757,3.86c0.303,1.287,0.985,0.908,1.742,0.379l1.894-1.439
		l-1.515,2.498c-0.227,0.833-0.227,0.983,0.758,1.135l3.333,0.454l-3.333,1.439c-0.606,0.228-1.211,0.454-0.076,1.135l2.273,1.588
		H29.938L29.938,36.972z"/>
</g>
</svg>
