<?xml version="1.0" encoding="UTF-8" standalone="no"?>
<!-- Created with Inkscape (http://www.inkscape.org/) -->

<svg
   xmlns:dc="http://purl.org/dc/elements/1.1/"
   xmlns:cc="http://creativecommons.org/ns#"
   xmlns:rdf="http://www.w3.org/1999/02/22-rdf-syntax-ns#"
   xmlns:svg="http://www.w3.org/2000/svg"
   xmlns="http://www.w3.org/2000/svg"
   xmlns:sodipodi="http://sodipodi.sourceforge.net/DTD/sodipodi-0.dtd"
   xmlns:inkscape="http://www.inkscape.org/namespaces/inkscape"
   version="1.1"
   id="svg2"
   xml:space="preserve"
   width="118.26666"
   height="180.66666"
   viewBox="0 0 118.26666 180.66665"
   sodipodi:docname="bc-drivers-guide_31.svg"
   inkscape:version="0.92.2 5c3e80d, 2017-08-06"><metadata
     id="metadata8"><rdf:RDF><cc:Work
         rdf:about=""><dc:format>image/svg+xml</dc:format><dc:type
           rdf:resource="http://purl.org/dc/dcmitype/StillImage" /><dc:title></dc:title></cc:Work></rdf:RDF></metadata><defs
     id="defs6"><clipPath
       clipPathUnits="userSpaceOnUse"
       id="clipPath20"><path
         d="M 0,720 H 504 V 0 H 0 Z"
         id="path18"
         inkscape:connector-curvature="0" /></clipPath><clipPath
       clipPathUnits="userSpaceOnUse"
       id="clipPath338"><path
         d="m 346.5,267.45 h 88.699 v 135.5 H 346.5 Z"
         id="path336"
         inkscape:connector-curvature="0" /></clipPath></defs><sodipodi:namedview
     pagecolor="#ffffff"
     bordercolor="#666666"
     borderopacity="1"
     objecttolerance="10"
     gridtolerance="10"
     guidetolerance="10"
     inkscape:pageopacity="0"
     inkscape:pageshadow="2"
     inkscape:window-width="916"
     inkscape:window-height="769"
     id="namedview4"
     showgrid="false"
     inkscape:zoom="0.69532167"
     inkscape:cx="-197.18643"
     inkscape:cy="123.4"
     inkscape:window-x="0"
     inkscape:window-y="0"
     inkscape:window-maximized="0"
     inkscape:current-layer="g10" /><g
     id="g10"
     inkscape:groupmode="layer"
     inkscape:label="bc-drivers-guide"
     transform="matrix(1.3333333,0,0,-1.3333333,-461.99999,537.26665)"><path
       d="m 346.5,267.45 h 88.7 v 135.5 h -88.7 z"
       style="fill:#ffffff;fill-opacity:1;fill-rule:evenodd;stroke:none"
       id="path258"
       inkscape:connector-curvature="0" /><g
       id="g260"
       transform="matrix(0,0.4868812,0.4744799,0,244.95001,-92.950012)"><path
         d="m 740.222,214.024 h 278.301 V 400.965 H 740.222 Z"
         style="fill:#231f20;fill-opacity:1;fill-rule:nonzero;stroke:none"
         id="path262"
         inkscape:connector-curvature="0" /></g><g
       id="g264"
       transform="matrix(0,0.4868812,0.4744799,0,244.95001,-92.950012)"><path
         d="m 740.249,305.154 h 211.082 v 3.566 H 740.249 Z"
         style="fill:#fbc707;fill-opacity:1;fill-rule:nonzero;stroke:none"
         id="path266"
         inkscape:connector-curvature="0" /></g><g
       id="g268"
       transform="matrix(0,0.4868812,0.4744799,0,244.95001,-92.950012)"><path
         d="m 748.491,257.355 h 28.017 v 3.566 h -28.017 z"
         style="fill:#ffffff;fill-opacity:1;fill-rule:nonzero;stroke:none"
         id="path270"
         inkscape:connector-curvature="0" /></g><g
       id="g272"
       transform="matrix(0,0.4868812,0.4744799,0,244.95001,-92.950012)"><path
         d="m 798.925,257.355 h 28.018 v 3.566 h -28.018 z"
         style="fill:#ffffff;fill-opacity:1;fill-rule:nonzero;stroke:none"
         id="path274"
         inkscape:connector-curvature="0" /></g><g
       id="g276"
       transform="matrix(0,0.4868812,0.4744799,0,244.95001,-92.950012)"><path
         d="m 849.357,257.355 h 28.019 v 3.566 h -28.019 z"
         style="fill:#ffffff;fill-opacity:1;fill-rule:nonzero;stroke:none"
         id="path278"
         inkscape:connector-curvature="0" /></g><g
       id="g280"
       transform="matrix(0,0.4868812,0.4744799,0,244.95001,-92.950012)"><path
         d="m 899.792,257.355 h 28.019 v 3.566 h -28.019 z"
         style="fill:#ffffff;fill-opacity:1;fill-rule:nonzero;stroke:none"
         id="path282"
         inkscape:connector-curvature="0" /></g><g
       id="g284"
       transform="matrix(0,0.4868812,0.4744799,0,244.95001,-92.950012)"><path
         d="m 748.491,352.576 h 28.017 v 3.566 h -28.017 z"
         style="fill:#ffffff;fill-opacity:1;fill-rule:nonzero;stroke:none"
         id="path286"
         inkscape:connector-curvature="0" /></g><g
       id="g288"
       transform="matrix(0,0.4868812,0.4744799,0,244.95001,-92.950012)"><path
         d="m 798.925,352.576 h 28.018 v 3.566 h -28.018 z"
         style="fill:#ffffff;fill-opacity:1;fill-rule:nonzero;stroke:none"
         id="path290"
         inkscape:connector-curvature="0" /></g><g
       id="g292"
       transform="matrix(0,0.4868812,0.4744799,0,244.95001,-92.950012)"><path
         d="m 849.357,352.576 h 28.019 v 3.566 h -28.019 z"
         style="fill:#ffffff;fill-opacity:1;fill-rule:nonzero;stroke:none"
         id="path294"
         inkscape:connector-curvature="0" /></g><g
       id="g296"
       transform="matrix(0,0.4868812,0.4744799,0,244.95001,-92.950012)"><path
         d="m 899.792,352.576 h 28.019 v 3.566 h -28.019 z"
         style="fill:#ffffff;fill-opacity:1;fill-rule:nonzero;stroke:none"
         id="path298"
         inkscape:connector-curvature="0" /></g><g
       id="g300"
       transform="matrix(0,0.4868812,0.4744799,0,244.95001,-92.950012)"><path
         d="m 951.998,221.484 h 56.668 v 9.333 h -56.668 z"
         style="fill:#ffffff;fill-opacity:1;fill-rule:nonzero;stroke:none"
         id="path302"
         inkscape:connector-curvature="0" /></g><g
       id="g304"
       transform="matrix(0,0.4868812,0.4744799,0,244.95001,-92.950012)"><path
         d="m 951.998,244.437 h 56.668 v 9.333 h -56.668 z"
         style="fill:#ffffff;fill-opacity:1;fill-rule:nonzero;stroke:none"
         id="path306"
         inkscape:connector-curvature="0" /></g><g
       id="g308"
       transform="matrix(0,0.4868812,0.4744799,0,244.95001,-92.950012)"><path
         d="m 951.998,267.389 h 56.668 v 9.333 h -56.668 z"
         style="fill:#ffffff;fill-opacity:1;fill-rule:nonzero;stroke:none"
         id="path310"
         inkscape:connector-curvature="0" /></g><g
       id="g312"
       transform="matrix(0,0.4868812,0.4744799,0,244.95001,-92.950012)"><path
         d="m 951.998,290.342 h 56.668 v 9.333 h -56.668 z"
         style="fill:#ffffff;fill-opacity:1;fill-rule:nonzero;stroke:none"
         id="path314"
         inkscape:connector-curvature="0" /></g><g
       id="g316"
       transform="matrix(0,0.4868812,0.4744799,0,244.95001,-92.950012)"><path
         d="m 951.998,313.294 h 56.668 v 9.333 h -56.668 z"
         style="fill:#ffffff;fill-opacity:1;fill-rule:nonzero;stroke:none"
         id="path318"
         inkscape:connector-curvature="0" /></g><g
       id="g320"
       transform="matrix(0,0.4868812,0.4744799,0,244.95001,-92.950012)"><path
         d="m 951.998,336.247 h 56.668 v 9.333 h -56.668 z"
         style="fill:#ffffff;fill-opacity:1;fill-rule:nonzero;stroke:none"
         id="path322"
         inkscape:connector-curvature="0" /></g><g
       id="g324"
       transform="matrix(0,0.4868812,0.4744799,0,244.95001,-92.950012)"><path
         d="m 951.998,359.199 h 56.668 v 9.333 h -56.668 z"
         style="fill:#ffffff;fill-opacity:1;fill-rule:nonzero;stroke:none"
         id="path326"
         inkscape:connector-curvature="0" /></g><g
       id="g328"
       transform="matrix(0,0.4868812,0.4744799,0,244.95001,-92.950012)"><path
         d="m 951.998,382.152 h 56.668 v 9.333 h -56.668 z"
         style="fill:#ffffff;fill-opacity:1;fill-rule:nonzero;stroke:none"
         id="path330"
         inkscape:connector-curvature="0" /></g><g
       id="g332"><g
         id="g334"
         clip-path="url(#clipPath338)"><g
           id="g340"
           transform="matrix(0,0.4868812,0.4744799,0,244.95001,-92.950012)"><g
             id="g342"
             transform="translate(949.5378,226.159)"><path
               d="m 0,0 c 0,1.791 -1.451,3.244 -3.243,3.244 -1.792,0 -3.243,-1.453 -3.243,-3.244 0,-1.792 1.451,-3.244 3.243,-3.244 C -1.451,-3.244 0,-1.792 0,0"
               style="fill:#fbc707;fill-opacity:1;fill-rule:nonzero;stroke:none"
               id="path344"
               inkscape:connector-curvature="0" /></g></g><g
           id="g346"
           transform="matrix(0,0.4868812,0.4744799,0,244.95001,-92.950012)"><g
             id="g348"
             transform="translate(1016.6823,226.159)"><path
               d="m 0,0 c 0,1.791 -1.451,3.244 -3.243,3.244 -1.792,0 -3.243,-1.453 -3.243,-3.244 0,-1.792 1.451,-3.244 3.243,-3.244 C -1.451,-3.244 0,-1.792 0,0"
               style="fill:#fbc707;fill-opacity:1;fill-rule:nonzero;stroke:none"
               id="path350"
               inkscape:connector-curvature="0" /></g></g><g
           id="g352"
           transform="matrix(0,0.4868812,0.4744799,0,244.95001,-92.950012)"><g
             id="g354"
             transform="translate(949.5378,249.5028)"><path
               d="m 0,0 c 0,1.791 -1.451,3.244 -3.243,3.244 -1.792,0 -3.243,-1.453 -3.243,-3.244 0,-1.792 1.451,-3.244 3.243,-3.244 C -1.451,-3.244 0,-1.792 0,0"
               style="fill:#fbc707;fill-opacity:1;fill-rule:nonzero;stroke:none"
               id="path356"
               inkscape:connector-curvature="0" /></g></g><g
           id="g358"
           transform="matrix(0,0.4868812,0.4744799,0,244.95001,-92.950012)"><g
             id="g360"
             transform="translate(1016.6823,249.5028)"><path
               d="m 0,0 c 0,1.791 -1.451,3.244 -3.243,3.244 -1.792,0 -3.243,-1.453 -3.243,-3.244 0,-1.792 1.451,-3.244 3.243,-3.244 C -1.451,-3.244 0,-1.792 0,0"
               style="fill:#fbc707;fill-opacity:1;fill-rule:nonzero;stroke:none"
               id="path362"
               inkscape:connector-curvature="0" /></g></g><g
           id="g364"
           transform="matrix(0,0.4868812,0.4744799,0,244.95001,-92.950012)"><g
             id="g366"
             transform="translate(949.5378,272.3749)"><path
               d="m 0,0 c 0,1.791 -1.451,3.244 -3.243,3.244 -1.792,0 -3.243,-1.453 -3.243,-3.244 0,-1.792 1.451,-3.244 3.243,-3.244 C -1.451,-3.244 0,-1.792 0,0"
               style="fill:#fbc707;fill-opacity:1;fill-rule:nonzero;stroke:none"
               id="path368"
               inkscape:connector-curvature="0" /></g></g><g
           id="g370"
           transform="matrix(0,0.4868812,0.4744799,0,244.95001,-92.950012)"><g
             id="g372"
             transform="translate(1016.6823,272.3749)"><path
               d="m 0,0 c 0,1.791 -1.451,3.244 -3.243,3.244 -1.792,0 -3.243,-1.453 -3.243,-3.244 0,-1.792 1.451,-3.244 3.243,-3.244 C -1.451,-3.244 0,-1.792 0,0"
               style="fill:#fbc707;fill-opacity:1;fill-rule:nonzero;stroke:none"
               id="path374"
               inkscape:connector-curvature="0" /></g></g><g
           id="g376"
           transform="matrix(0,0.4868812,0.4744799,0,244.95001,-92.950012)"><g
             id="g378"
             transform="translate(949.5378,295.2465)"><path
               d="m 0,0 c 0,1.791 -1.451,3.244 -3.243,3.244 -1.792,0 -3.243,-1.453 -3.243,-3.244 0,-1.792 1.451,-3.244 3.243,-3.244 C -1.451,-3.244 0,-1.792 0,0"
               style="fill:#fbc707;fill-opacity:1;fill-rule:nonzero;stroke:none"
               id="path380"
               inkscape:connector-curvature="0" /></g></g><g
           id="g382"
           transform="matrix(0,0.4868812,0.4744799,0,244.95001,-92.950012)"><g
             id="g384"
             transform="translate(1016.6823,295.2465)"><path
               d="m 0,0 c 0,1.791 -1.451,3.244 -3.243,3.244 -1.792,0 -3.243,-1.453 -3.243,-3.244 0,-1.792 1.451,-3.244 3.243,-3.244 C -1.451,-3.244 0,-1.792 0,0"
               style="fill:#fbc707;fill-opacity:1;fill-rule:nonzero;stroke:none"
               id="path386"
               inkscape:connector-curvature="0" /></g></g><g
           id="g388"
           transform="matrix(0,0.4868812,0.4744799,0,244.95001,-92.950012)"><g
             id="g390"
             transform="translate(949.5378,318.1185)"><path
               d="m 0,0 c 0,1.791 -1.451,3.244 -3.243,3.244 -1.792,0 -3.243,-1.453 -3.243,-3.244 0,-1.792 1.451,-3.244 3.243,-3.244 C -1.451,-3.244 0,-1.792 0,0"
               style="fill:#fbc707;fill-opacity:1;fill-rule:nonzero;stroke:none"
               id="path392"
               inkscape:connector-curvature="0" /></g></g><g
           id="g394"
           transform="matrix(0,0.4868812,0.4744799,0,244.95001,-92.950012)"><g
             id="g396"
             transform="translate(1016.6823,318.1185)"><path
               d="m 0,0 c 0,1.791 -1.451,3.244 -3.243,3.244 -1.792,0 -3.243,-1.453 -3.243,-3.244 0,-1.792 1.451,-3.244 3.243,-3.244 C -1.451,-3.244 0,-1.792 0,0"
               style="fill:#fbc707;fill-opacity:1;fill-rule:nonzero;stroke:none"
               id="path398"
               inkscape:connector-curvature="0" /></g></g><g
           id="g400"
           transform="matrix(0,0.4868812,0.4744799,0,244.95001,-92.950012)"><g
             id="g402"
             transform="translate(949.5378,341.2264)"><path
               d="m 0,0 c 0,1.791 -1.451,3.244 -3.243,3.244 -1.792,0 -3.243,-1.453 -3.243,-3.244 0,-1.792 1.451,-3.244 3.243,-3.244 C -1.451,-3.244 0,-1.792 0,0"
               style="fill:#fbc707;fill-opacity:1;fill-rule:nonzero;stroke:none"
               id="path404"
               inkscape:connector-curvature="0" /></g></g><g
           id="g406"
           transform="matrix(0,0.4868812,0.4744799,0,244.95001,-92.950012)"><g
             id="g408"
             transform="translate(1016.6823,341.2264)"><path
               d="m 0,0 c 0,1.791 -1.451,3.244 -3.243,3.244 -1.792,0 -3.243,-1.453 -3.243,-3.244 0,-1.792 1.451,-3.244 3.243,-3.244 C -1.451,-3.244 0,-1.792 0,0"
               style="fill:#fbc707;fill-opacity:1;fill-rule:nonzero;stroke:none"
               id="path410"
               inkscape:connector-curvature="0" /></g></g><g
           id="g412"
           transform="matrix(0,0.4868812,0.4744799,0,244.95001,-92.950012)"><g
             id="g414"
             transform="translate(949.5378,364.098)"><path
               d="m 0,0 c 0,1.791 -1.451,3.244 -3.243,3.244 -1.792,0 -3.243,-1.453 -3.243,-3.244 0,-1.792 1.451,-3.244 3.243,-3.244 C -1.451,-3.244 0,-1.792 0,0"
               style="fill:#fbc707;fill-opacity:1;fill-rule:nonzero;stroke:none"
               id="path416"
               inkscape:connector-curvature="0" /></g></g><g
           id="g418"
           transform="matrix(0,0.4868812,0.4744799,0,244.95001,-92.950012)"><g
             id="g420"
             transform="translate(1016.6823,364.098)"><path
               d="m 0,0 c 0,1.791 -1.451,3.244 -3.243,3.244 -1.792,0 -3.243,-1.453 -3.243,-3.244 0,-1.792 1.451,-3.244 3.243,-3.244 C -1.451,-3.244 0,-1.792 0,0"
               style="fill:#fbc707;fill-opacity:1;fill-rule:nonzero;stroke:none"
               id="path422"
               inkscape:connector-curvature="0" /></g></g><g
           id="g424"
           transform="matrix(0,0.4868812,0.4744799,0,244.95001,-92.950012)"><g
             id="g426"
             transform="translate(949.5378,386.7342)"><path
               d="m 0,0 c 0,1.791 -1.451,3.244 -3.243,3.244 -1.792,0 -3.243,-1.453 -3.243,-3.244 0,-1.792 1.451,-3.244 3.243,-3.244 C -1.451,-3.244 0,-1.792 0,0"
               style="fill:#fbc707;fill-opacity:1;fill-rule:nonzero;stroke:none"
               id="path428"
               inkscape:connector-curvature="0" /></g></g><g
           id="g430"
           transform="matrix(0,0.4868812,0.4744799,0,244.95001,-92.950012)"><g
             id="g432"
             transform="translate(1016.6823,386.7342)"><path
               d="m 0,0 c 0,1.791 -1.451,3.244 -3.243,3.244 -1.792,0 -3.243,-1.453 -3.243,-3.244 0,-1.792 1.451,-3.244 3.243,-3.244 C -1.451,-3.244 0,-1.792 0,0"
               style="fill:#fbc707;fill-opacity:1;fill-rule:nonzero;stroke:none"
               id="path434"
               inkscape:connector-curvature="0" /></g></g></g></g></g></svg>