<svg width="62.5" height="181.6" version="1.1" viewBox="0 0 62.499668 181.59804" xmlns="http://www.w3.org/2000/svg"><defs><linearGradient id="i" x2="1" gradientTransform="matrix(-5.3e-6 119.97 119.97 5.3e-6 213.9 114.32)" gradientUnits="userSpaceOnUse"><stop stop-color="#4b4748" offset="0"/><stop stop-color="#6e6b6c" offset=".19663"/><stop stop-color="#6e6b6c" offset=".26982"/><stop stop-color="#e5e4e4" offset=".51124"/><stop stop-color="#6e6b6c" offset=".80777"/><stop stop-color="#6e6b6c" offset=".83146"/><stop stop-color="#444141" offset="1"/></linearGradient><linearGradient id="h" x2="1" gradientTransform="matrix(-5.3e-6 119.97 119.97 5.3e-6 219.23 114.32)" gradientUnits="userSpaceOnUse"><stop stop-color="#4b4748" offset="0"/><stop stop-color="#6e6b6c" offset=".19663"/><stop stop-color="#6e6b6c" offset=".26982"/><stop stop-color="#e5e4e4" offset=".51124"/><stop stop-color="#6e6b6c" offset=".80777"/><stop stop-color="#6e6b6c" offset=".83146"/><stop stop-color="#444141" offset="1"/></linearGradient><linearGradient id="g" x2="1" gradientTransform="matrix(-5.3e-6 119.97 119.97 5.3e-6 224.55 114.32)" gradientUnits="userSpaceOnUse"><stop stop-color="#4b4748" offset="0"/><stop stop-color="#6e6b6c" offset=".19663"/><stop stop-color="#6e6b6c" offset=".26982"/><stop stop-color="#e5e4e4" offset=".51124"/><stop stop-color="#6e6b6c" offset=".80777"/><stop stop-color="#6e6b6c" offset=".83146"/><stop stop-color="#444141" offset="1"/></linearGradient><linearGradient id="f" x2="1" gradientTransform="matrix(-5.3e-6 119.97 119.97 5.3e-6 241.4 114.32)" gradientUnits="userSpaceOnUse"><stop stop-color="#4b4748" offset="0"/><stop stop-color="#6e6b6c" offset=".19663"/><stop stop-color="#6e6b6c" offset=".26982"/><stop stop-color="#e5e4e4" offset=".51124"/><stop stop-color="#6e6b6c" offset=".80777"/><stop stop-color="#6e6b6c" offset=".83146"/><stop stop-color="#444141" offset="1"/></linearGradient><linearGradient id="e" x2="1" gradientTransform="matrix(-5.3e-6 119.97 119.97 5.3e-6 236.07 114.32)" gradientUnits="userSpaceOnUse"><stop stop-color="#4b4748" offset="0"/><stop stop-color="#6e6b6c" offset=".19663"/><stop stop-color="#6e6b6c" offset=".26982"/><stop stop-color="#e5e4e4" offset=".51124"/><stop stop-color="#6e6b6c" offset=".80777"/><stop stop-color="#6e6b6c" offset=".83146"/><stop stop-color="#444141" offset="1"/></linearGradient><linearGradient id="d" x2="1" gradientTransform="matrix(-5.3e-6 119.97 119.97 5.3e-6 230.75 114.32)" gradientUnits="userSpaceOnUse"><stop stop-color="#4b4748" offset="0"/><stop stop-color="#6e6b6c" offset=".19663"/><stop stop-color="#6e6b6c" offset=".26982"/><stop stop-color="#e5e4e4" offset=".51124"/><stop stop-color="#6e6b6c" offset=".80777"/><stop stop-color="#6e6b6c" offset=".83146"/><stop stop-color="#444141" offset="1"/></linearGradient><linearGradient id="c" x2="1" gradientTransform="matrix(28.074 0 0 -28.074 202.42 171.8)" gradientUnits="userSpaceOnUse"><stop stop-color="#3d3a3b" offset="0"/><stop stop-color="#3d3a3b" offset=".005618"/><stop stop-color="#3d3a3b" offset=".22729"/><stop stop-color="#fff" offset=".63483"/><stop stop-color="#5c595a" offset="1"/></linearGradient><clipPath id="r"><path d="m192.25 260.5s-12 0-12-12v-156s0-12 12-12h197.5s12 0 12 12v156s0 12-12 12z"/></clipPath><linearGradient id="b" x2="1" gradientTransform="matrix(-28.074 0 0 -28.074 250.63 171.8)" gradientUnits="userSpaceOnUse"><stop stop-color="#3d3a3b" offset="0"/><stop stop-color="#3d3a3b" offset=".005618"/><stop stop-color="#3d3a3b" offset=".22729"/><stop stop-color="#fff" offset=".63483"/><stop stop-color="#5c595a" offset="1"/></linearGradient><clipPath id="q"><path d="m192.25 260.5s-12 0-12-12v-156s0-12 12-12h197.5s12 0 12 12v156s0 12-12 12z"/></clipPath><linearGradient id="a" x2="1" gradientTransform="matrix(-6e-6 136.98 136.98 6e-6 226.64 103.13)" gradientUnits="userSpaceOnUse"><stop stop-color="#827f80" offset="0"/><stop stop-color="#696767" offset=".19101"/><stop stop-color="#696767" offset=".27727"/><stop stop-color="#b4b3b3" offset=".5"/><stop stop-color="#676465" offset=".75627"/><stop stop-color="#676465" offset=".8427"/><stop stop-color="#939192" offset="1"/></linearGradient><clipPath id="p"><path d="m192.25 260.5s-12 0-12-12v-156s0-12 12-12h197.5s12 0 12 12v156s0 12-12 12z"/></clipPath><linearGradient id="o" x2="1" gradientTransform="matrix(-7.2e-6 165.01 165.01 7.2e-6 213.02 90.414)" gradientUnits="userSpaceOnUse"><stop stop-color="#373334" offset="0"/><stop stop-color="#373334" offset=".13678"/><stop stop-color="#a09f9f" offset=".5"/><stop stop-color="#403c3d" offset=".82084"/><stop stop-color="#403c3d" offset=".96629"/><stop stop-color="#403c3d" offset="1"/></linearGradient><linearGradient id="n" x2="1" gradientTransform="matrix(-7.3e-6 167.76 167.76 7.3e-6 218.36 90.115)" gradientUnits="userSpaceOnUse"><stop stop-color="#373334" offset="0"/><stop stop-color="#373334" offset=".13678"/><stop stop-color="#a09f9f" offset=".5"/><stop stop-color="#403c3d" offset=".82084"/><stop stop-color="#403c3d" offset=".96629"/><stop stop-color="#403c3d" offset="1"/></linearGradient><linearGradient id="m" x2="1" gradientTransform="matrix(-7.3e-6 166.19 166.19 7.3e-6 223.68 90.283)" gradientUnits="userSpaceOnUse"><stop stop-color="#373334" offset="0"/><stop stop-color="#373334" offset=".13678"/><stop stop-color="#a09f9f" offset=".5"/><stop stop-color="#403c3d" offset=".82084"/><stop stop-color="#403c3d" offset=".96629"/><stop stop-color="#403c3d" offset="1"/></linearGradient><linearGradient id="l" x2="1" gradientTransform="matrix(-7.4e-6 168.62 168.62 7.4e-6 240.55 90.045)" gradientUnits="userSpaceOnUse"><stop stop-color="#373334" offset="0"/><stop stop-color="#373334" offset=".13678"/><stop stop-color="#a09f9f" offset=".5"/><stop stop-color="#403c3d" offset=".82084"/><stop stop-color="#403c3d" offset=".96629"/><stop stop-color="#403c3d" offset="1"/></linearGradient><linearGradient id="k" x2="1" gradientTransform="matrix(-7.4e-6 169.74 169.74 7.4e-6 235.21 89.891)" gradientUnits="userSpaceOnUse"><stop stop-color="#373334" offset="0"/><stop stop-color="#373334" offset=".13678"/><stop stop-color="#a09f9f" offset=".5"/><stop stop-color="#403c3d" offset=".82084"/><stop stop-color="#403c3d" offset=".96629"/><stop stop-color="#403c3d" offset="1"/></linearGradient><linearGradient id="j" x2="1" gradientTransform="matrix(-7.4e-6 168.62 168.62 7.4e-6 229.88 90.015)" gradientUnits="userSpaceOnUse"><stop stop-color="#373334" offset="0"/><stop stop-color="#373334" offset=".13678"/><stop stop-color="#a09f9f" offset=".5"/><stop stop-color="#403c3d" offset=".82084"/><stop stop-color="#403c3d" offset=".96629"/><stop stop-color="#403c3d" offset="1"/></linearGradient></defs><g transform="matrix(1.3333 0 0 -1.3333 -270.81 319.86)"><path d="m212.95 234.25-0.071-0.111s1.4-4.392 1.453-4.557c-0.053-0.165-1.44-4.517-1.44-4.517s1.387-4.352 1.44-4.518c-0.053-0.166-1.44-4.517-1.44-4.517s1.387-4.352 1.44-4.517c-0.053-0.166-1.44-4.517-1.44-4.517s1.387-4.352 1.44-4.517c-0.053-0.166-1.44-4.518-1.44-4.518s1.387-4.352 1.44-4.517c-0.053-0.165-1.44-4.517-1.44-4.517s1.387-4.352 1.44-4.518c-0.053-0.165-1.44-4.517-1.44-4.517s1.387-4.351 1.44-4.517c-0.053-0.164-1.44-4.516-1.44-4.516s1.387-4.352 1.44-4.518c-0.053-0.166-1.44-4.518-1.44-4.518s1.387-4.351 1.44-4.516c-0.053-0.166-1.44-4.517-1.44-4.517s1.387-4.352 1.44-4.517c-0.053-0.166-1.44-4.518-1.44-4.518s1.387-4.352 1.44-4.518c-0.053-0.164-1.44-4.516-1.44-4.516s1.387-4.352 1.44-4.518c-0.053-0.164-1.44-4.517-1.44-4.517s1.387-4.352 1.44-4.518c-0.053-0.164-1.44-4.516-1.44-4.516s1.4-4.388 1.445-4.53c-0.034-0.144-1.003-4.505-1.003-4.505l0.15-0.671 0.552 0.125s-0.1 0.448-0.121 0.546c0.026 0.12 1.006 4.531 1.006 4.531s-1.383 4.339-1.435 4.504c0.052 0.165 1.44 4.516 1.44 4.516s-1.388 4.354-1.44 4.518c0.052 0.166 1.44 4.517 1.44 4.517s-1.388 4.353-1.44 4.518c0.052 0.165 1.44 4.516 1.44 4.516s-1.388 4.353-1.44 4.518c0.052 0.165 1.44 4.518 1.44 4.518s-1.388 4.351-1.44 4.517c0.052 0.165 1.44 4.517 1.44 4.517s-1.388 4.35-1.44 4.516c0.052 0.166 1.44 4.518 1.44 4.518s-1.388 4.352-1.44 4.518c0.052 0.164 1.44 4.516 1.44 4.516s-1.388 4.352-1.44 4.517c0.052 0.166 1.44 4.517 1.44 4.517s-1.388 4.353-1.44 4.518c0.052 0.166 1.44 4.517 1.44 4.517s-1.388 4.352-1.44 4.517c0.052 0.165 1.44 4.518 1.44 4.518s-1.388 4.351-1.44 4.517c0.052 0.165 1.44 4.517 1.44 4.517s-1.388 4.351-1.44 4.517c0.052 0.166 1.44 4.517 1.44 4.517s-1.388 4.352-1.44 4.518c0.052 0.165 1.44 4.517 1.44 4.517s-1.352 4.239-1.427 4.478c0.123 0.194 1.211 2.017 1.211 2.017l-0.517 0.057z" fill="url(#i)"/><path d="m218.24 234.16-0.017-0.075s1.384-4.339 1.436-4.504c-0.052-0.165-1.44-4.517-1.44-4.517s1.388-4.352 1.44-4.518c-0.052-0.166-1.44-4.517-1.44-4.517s1.388-4.352 1.44-4.517c-0.052-0.166-1.44-4.517-1.44-4.517s1.388-4.352 1.44-4.517c-0.052-0.166-1.44-4.518-1.44-4.518s1.388-4.352 1.44-4.517c-0.052-0.165-1.44-4.517-1.44-4.517s1.388-4.352 1.44-4.518c-0.052-0.165-1.44-4.517-1.44-4.517s1.388-4.351 1.44-4.517c-0.052-0.164-1.44-4.516-1.44-4.516s1.388-4.352 1.44-4.518c-0.052-0.166-1.44-4.518-1.44-4.518s1.388-4.351 1.44-4.516c-0.052-0.166-1.44-4.517-1.44-4.517s1.388-4.352 1.44-4.517c-0.052-0.166-1.44-4.518-1.44-4.518s1.388-4.352 1.44-4.518c-0.052-0.164-1.44-4.516-1.44-4.516s1.388-4.352 1.44-4.518c-0.052-0.164-1.44-4.517-1.44-4.517s1.388-4.352 1.44-4.518c-0.052-0.164-1.44-4.516-1.44-4.516s1.4-4.388 1.444-4.53c-0.032-0.144-1.001-3.5-1.001-3.5l0.686-0.098 0.9 3.624s-1.383 4.339-1.435 4.504c0.052 0.165 1.441 4.516 1.441 4.516s-1.389 4.354-1.441 4.518c0.052 0.166 1.441 4.517 1.441 4.517s-1.389 4.353-1.441 4.518c0.052 0.165 1.441 4.516 1.441 4.516s-1.389 4.353-1.441 4.518c0.052 0.165 1.441 4.518 1.441 4.518s-1.389 4.351-1.441 4.517c0.052 0.165 1.441 4.517 1.441 4.517s-1.389 4.35-1.441 4.516c0.052 0.166 1.441 4.518 1.441 4.518s-1.389 4.352-1.441 4.518c0.052 0.164 1.441 4.516 1.441 4.516s-1.389 4.352-1.441 4.517c0.052 0.166 1.441 4.517 1.441 4.517s-1.389 4.353-1.441 4.518c0.052 0.166 1.441 4.517 1.441 4.517s-1.389 4.352-1.441 4.517c0.052 0.165 1.441 4.518 1.441 4.518s-1.389 4.351-1.441 4.517c0.052 0.165 1.441 4.517 1.441 4.517s-1.389 4.351-1.441 4.517c0.052 0.166 1.441 4.517 1.441 4.517s-1.389 4.352-1.441 4.518c0.052 0.165 1.441 4.517 1.441 4.517s-1.401 4.389-1.446 4.53c0.031 0.138 0.374 1.284 0.374 1.284l-0.353 0.236z" fill="url(#h)"/><path d="m223.95 235.16-0.372-0.95-0.041-0.097s1.392-4.366 1.444-4.531c-0.052-0.165-1.44-4.517-1.44-4.517s1.388-4.352 1.44-4.518c-0.052-0.166-1.44-4.517-1.44-4.517s1.388-4.352 1.44-4.517c-0.052-0.166-1.44-4.517-1.44-4.517s1.388-4.352 1.44-4.517c-0.052-0.166-1.44-4.518-1.44-4.518s1.388-4.352 1.44-4.517c-0.052-0.165-1.44-4.517-1.44-4.517s1.388-4.352 1.44-4.518c-0.052-0.165-1.44-4.517-1.44-4.517s1.388-4.351 1.44-4.517c-0.052-0.164-1.44-4.516-1.44-4.516s1.388-4.352 1.44-4.518c-0.052-0.166-1.44-4.518-1.44-4.518s1.388-4.351 1.44-4.516c-0.052-0.166-1.44-4.517-1.44-4.517s1.388-4.352 1.44-4.517c-0.052-0.166-1.44-4.518-1.44-4.518s1.388-4.352 1.44-4.518c-0.052-0.164-1.44-4.516-1.44-4.516s1.388-4.352 1.44-4.518c-0.052-0.164-1.44-4.517-1.44-4.517s1.388-4.352 1.44-4.518c-0.052-0.164-1.44-4.516-1.44-4.516s1.4-4.388 1.444-4.53c-0.031-0.144-0.941-3.206-0.941-3.206l0.505-0.098 1.022 3.33s-1.383 4.339-1.436 4.504c0.053 0.165 1.44 4.516 1.44 4.516s-1.387 4.354-1.44 4.518c0.053 0.166 1.44 4.517 1.44 4.517s-1.387 4.353-1.44 4.518c0.053 0.165 1.44 4.516 1.44 4.516s-1.387 4.353-1.44 4.518c0.053 0.165 1.44 4.518 1.44 4.518s-1.387 4.351-1.44 4.517c0.053 0.165 1.44 4.517 1.44 4.517s-1.387 4.35-1.44 4.516c0.053 0.166 1.44 4.518 1.44 4.518s-1.387 4.352-1.44 4.518c0.053 0.164 1.44 4.516 1.44 4.516s-1.387 4.352-1.44 4.517c0.053 0.166 1.44 4.517 1.44 4.517s-1.387 4.353-1.44 4.518c0.053 0.166 1.44 4.517 1.44 4.517s-1.387 4.352-1.44 4.517c0.053 0.165 1.44 4.518 1.44 4.518s-1.387 4.351-1.44 4.517c0.053 0.165 1.44 4.517 1.44 4.517s-1.387 4.351-1.44 4.517c0.053 0.166 1.44 4.517 1.44 4.517s-1.387 4.352-1.44 4.518c0.053 0.165 1.44 4.517 1.44 4.517s-1.374 4.311-1.436 4.503c0.071 0.165 0.505 1.182 0.505 1.182z" fill="url(#g)"/><path d="m240.57 231.22-0.189-0.42s1.382-4.338 1.436-4.504c-0.054-0.165-1.44-4.517-1.44-4.517s1.386-4.352 1.44-4.518c-0.054-0.165-1.44-4.517-1.44-4.517s1.386-4.351 1.44-4.517c-0.054-0.166-1.44-4.517-1.44-4.517s1.386-4.351 1.44-4.516c-0.054-0.166-1.44-4.519-1.44-4.519s1.386-4.352 1.44-4.516c-0.054-0.166-1.44-4.517-1.44-4.517s1.386-4.352 1.44-4.518c-0.054-0.165-1.44-4.518-1.44-4.518s1.386-4.351 1.44-4.516c-0.054-0.165-1.44-4.517-1.44-4.517s1.386-4.352 1.44-4.517c-0.054-0.166-1.44-4.518-1.44-4.518s1.386-4.351 1.44-4.517c-0.054-0.166-1.44-4.517-1.44-4.517s1.386-4.352 1.44-4.517c-0.054-0.165-1.44-4.517-1.44-4.517s1.386-4.353 1.44-4.518c-0.054-0.164-1.44-4.518-1.44-4.518s1.386-4.35 1.44-4.517c-0.054-0.164-1.44-4.516-1.44-4.516s1.386-4.352 1.44-4.518c-0.054-0.165-1.44-4.517-1.44-4.517s1.355-4.251 1.428-4.481c-0.118-0.198-1.165-1.44-1.165-1.44l0.492-0.295 1.29 1.663s-1.399 4.388-1.452 4.553c0.053 0.165 1.44 4.517 1.44 4.517s-1.387 4.353-1.44 4.518c0.053 0.166 1.44 4.516 1.44 4.516s-1.387 4.352-1.44 4.517c0.053 0.166 1.44 4.518 1.44 4.518s-1.387 4.352-1.44 4.518c0.053 0.165 1.44 4.517 1.44 4.517s-1.387 4.351-1.44 4.517c0.053 0.165 1.44 4.517 1.44 4.517s-1.387 4.352-1.44 4.517c0.053 0.166 1.44 4.518 1.44 4.518s-1.387 4.351-1.44 4.517c0.053 0.166 1.44 4.517 1.44 4.517s-1.387 4.352-1.44 4.516c0.053 0.166 1.44 4.518 1.44 4.518s-1.387 4.352-1.44 4.518c0.053 0.165 1.44 4.517 1.44 4.517s-1.387 4.351-1.44 4.516c0.053 0.165 1.44 4.519 1.44 4.519s-1.387 4.351-1.44 4.516c0.053 0.165 1.44 4.517 1.44 4.517s-1.387 4.352-1.44 4.517c0.053 0.166 1.44 4.517 1.44 4.517s-1.387 4.353-1.44 4.518c0.053 0.166 1.44 4.517 1.44 4.517s-1.399 4.39-1.444 4.53c0.032 0.145 0.988 4.443 0.988 4.443l-0.379 0.468z" fill="url(#f)"/><path d="m235.07 230.87-0.017-0.075s1.384-4.338 1.436-4.504c-0.052-0.165-1.44-4.517-1.44-4.517s1.388-4.352 1.44-4.518c-0.052-0.165-1.44-4.517-1.44-4.517s1.388-4.351 1.44-4.517c-0.052-0.166-1.44-4.517-1.44-4.517s1.388-4.351 1.44-4.516c-0.052-0.166-1.44-4.519-1.44-4.519s1.388-4.352 1.44-4.516c-0.052-0.166-1.44-4.517-1.44-4.517s1.388-4.352 1.44-4.518c-0.052-0.165-1.44-4.518-1.44-4.518s1.388-4.351 1.44-4.516c-0.052-0.165-1.44-4.517-1.44-4.517s1.388-4.352 1.44-4.517c-0.052-0.166-1.44-4.518-1.44-4.518s1.388-4.351 1.44-4.517c-0.052-0.166-1.44-4.517-1.44-4.517s1.388-4.352 1.44-4.517c-0.052-0.165-1.44-4.517-1.44-4.517s1.388-4.353 1.44-4.518c-0.052-0.164-1.44-4.518-1.44-4.518s1.388-4.35 1.44-4.517c-0.052-0.164-1.44-4.516-1.44-4.516s1.388-4.352 1.44-4.518c-0.052-0.165-1.44-4.517-1.44-4.517s1.372-4.302 1.435-4.499c-0.079-0.173 0.605-0.036 0.605-0.036s-1.393 4.37-1.446 4.535c0.053 0.165 1.44 4.517 1.44 4.517s-1.387 4.353-1.44 4.518c0.053 0.166 1.44 4.516 1.44 4.516s-1.387 4.352-1.44 4.517c0.053 0.166 1.44 4.518 1.44 4.518s-1.387 4.352-1.44 4.518c0.053 0.165 1.44 4.517 1.44 4.517s-1.387 4.351-1.44 4.517c0.053 0.165 1.44 4.517 1.44 4.517s-1.387 4.352-1.44 4.517c0.053 0.166 1.44 4.518 1.44 4.518s-1.387 4.351-1.44 4.517c0.053 0.166 1.44 4.517 1.44 4.517s-1.387 4.352-1.44 4.516c0.053 0.166 1.44 4.518 1.44 4.518s-1.387 4.352-1.44 4.518c0.053 0.165 1.44 4.517 1.44 4.517s-1.387 4.351-1.44 4.516c0.053 0.165 1.44 4.519 1.44 4.519s-1.387 4.351-1.44 4.516c0.053 0.165 1.44 4.517 1.44 4.517s-1.387 4.352-1.44 4.517c0.053 0.166 1.44 4.517 1.44 4.517s-1.387 4.353-1.44 4.518c0.053 0.166 1.44 4.517 1.44 4.517s-1.399 4.39-1.444 4.53c0.032 0.145 0.989 4.443 0.989 4.443l-0.441 0.186z" fill="url(#e)"/><path d="m229.75 230.88-0.019-0.077s1.385-4.34 1.437-4.506c-0.052-0.165-1.44-4.517-1.44-4.517s1.388-4.352 1.44-4.518c-0.052-0.165-1.44-4.517-1.44-4.517s1.388-4.351 1.44-4.517c-0.052-0.166-1.44-4.517-1.44-4.517s1.388-4.351 1.44-4.516c-0.052-0.166-1.44-4.519-1.44-4.519s1.388-4.352 1.44-4.516c-0.052-0.166-1.44-4.517-1.44-4.517s1.388-4.352 1.44-4.518c-0.052-0.165-1.44-4.518-1.44-4.518s1.388-4.351 1.44-4.516c-0.052-0.165-1.44-4.517-1.44-4.517s1.388-4.352 1.44-4.517c-0.052-0.166-1.44-4.518-1.44-4.518s1.388-4.351 1.44-4.517c-0.052-0.166-1.44-4.517-1.44-4.517s1.388-4.352 1.44-4.517c-0.052-0.165-1.44-4.517-1.44-4.517s1.388-4.353 1.44-4.518c-0.052-0.164-1.44-4.518-1.44-4.518s1.388-4.35 1.44-4.517c-0.052-0.164-1.44-4.516-1.44-4.516s1.388-4.352 1.44-4.518c-0.052-0.165-1.44-4.517-1.44-4.517s1.387-4.351 1.44-4.516c-0.047-0.148 0.594-2e-3 0.594-2e-3s-1.387 4.353-1.44 4.518c0.053 0.165 1.44 4.517 1.44 4.517s-1.387 4.353-1.44 4.518c0.053 0.166 1.44 4.516 1.44 4.516s-1.387 4.352-1.44 4.517c0.053 0.166 1.44 4.518 1.44 4.518s-1.387 4.352-1.44 4.518c0.053 0.165 1.44 4.517 1.44 4.517s-1.387 4.351-1.44 4.517c0.053 0.165 1.44 4.517 1.44 4.517s-1.387 4.352-1.44 4.517c0.053 0.166 1.44 4.518 1.44 4.518s-1.387 4.351-1.44 4.517c0.053 0.166 1.44 4.517 1.44 4.517s-1.387 4.352-1.44 4.516c0.053 0.166 1.44 4.518 1.44 4.518s-1.387 4.352-1.44 4.518c0.053 0.165 1.44 4.517 1.44 4.517s-1.387 4.351-1.44 4.516c0.053 0.165 1.44 4.519 1.44 4.519s-1.387 4.351-1.44 4.516c0.053 0.165 1.44 4.517 1.44 4.517s-1.387 4.352-1.44 4.517c0.053 0.166 1.44 4.517 1.44 4.517s-1.387 4.353-1.44 4.518c0.053 0.166 1.44 4.517 1.44 4.517s-1.397 4.382-1.444 4.527c0.036 0.149 1.001 4.165 1.001 4.165l-0.549 0.131z" fill="url(#d)"/><path d="m204.43 235.28c-1.781-3.559-0.96-6.561-0.372-8.495 0.503-1.66 0.923-31.739 0.923-54.986s-0.42-53.325-0.923-54.985c-0.588-1.934-1.409-4.937 0.372-8.497 1.779-3.558 5.934-4.73 9.499-4.278 0.191 0.024 0.148 0.217 0 0.47v2.525l1.649 0.928v-3.487c0.067-2e-3 0.133-5e-3 0.201-5e-3l1.185 0.633v133.88s-1.319 0.533-1.386 0.531v-3.15h-1.649v2.723c0.148 0.253 0.191 0.446 0 0.471-0.48 0.061-0.972 0.092-1.467 0.092-3.176 0-6.493-1.292-8.032-4.372" fill="url(#c)"/><g clip-path="url(#r)"><g transform="translate(215.58 239.51)"><path d="m0 0v-3.15h-1.648v2.722c0.147 0.253 0.191 0.447 0 0.471-3.566 0.452-7.721-0.72-9.5-4.279-1.78-3.559-0.959-6.562-0.372-8.496 0.504-1.659 0.923-31.739 0.923-54.986 0-23.245-0.419-53.325-0.923-54.985-0.587-1.934-1.408-4.937 0.372-8.496 1.779-3.559 5.934-4.731 9.5-4.279 0.191 0.024 0.147 0.218 0 0.471v2.525l1.648 0.927v-3.486c0.067-2e-3 0.134-5e-3 0.2-5e-3l1.187 0.633v133.88s-1.32 0.533-1.387 0.532z" fill="none" stroke="#231f20" stroke-linecap="round" stroke-linejoin="round" stroke-width=".493"/></g></g><path d="m239.12 239.56c-0.192-0.025-0.149-0.218 0-0.471v-2.723h-1.649v3.15c-0.068 2e-3 -1.387-0.531-1.387-0.531v-133.88l1.186-0.633c0.068 0 0.133 3e-3 0.201 5e-3v3.487l1.649-0.928v-2.525c-0.149-0.253-0.192-0.446 0-0.47 3.565-0.452 7.72 0.72 9.499 4.278 1.779 3.56 1.05 6.592 0.372 8.497-0.785 2.203-0.923 31.738-0.923 54.985s0.42 53.326 0.923 54.986c0.587 1.934 1.407 4.936-0.372 8.495-1.539 3.08-4.857 4.372-8.032 4.372-0.495 0-0.987-0.031-1.467-0.092" fill="url(#b)"/><g clip-path="url(#q)"><g transform="translate(237.48 239.51)"><path d="m0 0v-3.15h1.648v2.722c-0.147 0.253-0.191 0.447 0 0.471 3.566 0.452 7.721-0.72 9.5-4.279 1.78-3.559 0.959-6.562 0.372-8.496-0.504-1.659-0.923-31.739-0.923-54.986 0-23.245 0.138-52.781 0.923-54.985 0.677-1.904 1.408-4.937-0.372-8.496-1.779-3.559-5.934-4.731-9.5-4.279-0.191 0.024-0.147 0.218 0 0.471v2.525l-1.648 0.927v-3.486c-0.067-2e-3 -0.134-5e-3 -0.201-5e-3l-1.186 0.633v133.88s1.32 0.533 1.387 0.532z" fill="none" stroke="#231f20" stroke-linecap="round" stroke-linejoin="round" stroke-width=".493"/></g></g><path d="m235.97 238.93c-0.504-0.116-1.033-0.219-1.576-0.315v-3.242h-1.647v2.981c-0.975-0.132-1.999-0.23-3.056-0.298v-3.127h-1.648v3.047c-0.504-0.015-1.012-0.025-1.527-0.025-0.517 0-1.025 0.01-1.529 0.025v-2.997h-1.648v3.077c-1.057 0.068-2.08 0.166-3.056 0.298v-2.933h-1.649v3.194c-0.54 0.096-1.071 0.199-1.575 0.315 0 0-1.409 0.586-1.48 0.586v-3.15h-1.649v2.996c-0.724-0.125-0.808-0.231-1.477-0.491l-0.615-5.067 1.89-4.014-1.352-4.598 1.387-4.637-1.503-4.637 1.538-4.557-1.5-4.485 1.534-4.404s-1.579-2.833-1.572-4.56c5e-3 -1.404 1.607-4.56 1.607-4.56l-1.721-4.408 1.755-4.573-1.572-4.577 1.607-4.635-1.79-4.575 1.525-4.024-1.206-4.514 0.728-4.513-0.802-4.574 0.802-4.576-0.861-4.816 1.137-4.299-1.137-4.622 1.423-4.769-1.398-4.153 0.836-4.307-0.861-4.616 0.861-5.538 0.313-3.503 0.424-0.726 1.649 1.183v-3.689c0.067-2e-3 1.48 0.533 1.48 0.533 0.504 0.116 1.035 0.219 1.575 0.316v3.275h1.649v-3.014c0.976 0.131 1.999 0.229 3.056 0.296v3.153h1.648v-3.072c0.504 0.014 1.012 0.025 1.529 0.025 0.515 0 1.023-0.011 1.527-0.025v3.072h1.648v-3.153c1.057-0.067 2.081-0.165 3.056-0.296v3.014h1.647v-3.275c0.543-0.097 1.072-0.2 1.576-0.316 0 0 1.414-0.604 1.481-0.602v3.758l1.649-1.183v-2.995c0.82 0.139-0.114 0.034 0.634 0.349l-0.466 2.957 1.919 1.786-1.475 3.656 1.204 5.234-1.197 4.609 1.306 4.389-1.3 4.282 1.082 4.771-1.076 4.336 1.185 4.662-1.178 4.336 1.287 4.608-1.28 4.445 1.28 4.716-1.274 4.117 1.056 4.828-1.049 4.932 1.158 4.282-1.151 4.554 1.314 4.444-1.308 4.607 1.308 4.283-1.302 4.446 0.983 4.714-0.983 4.338 1.085 4.824-1.15 4.282 1.095 4.608-1.095 3.598 1.74 4.643-0.482 4.01c-0.747 0.314-1.05 0.535-1.87 0.677v-2.996h-1.649v3.15c-0.071 0-1.481-0.586-1.481-0.586" fill="url(#a)"/><g clip-path="url(#p)"><g transform="translate(239.1 239.36)"><path d="m0 0v-2.996h-1.648v3.15c-0.067 2e-3 -0.133 6e-3 -0.201 6e-3 0 0-2.314-0.811-2.855-0.908v-3.275h-1.648v3.014c-0.976-0.131-2-0.229-3.056-0.297v-3.152h-1.648v3.073c-0.504-0.015-1.012-0.025-1.528-0.025s-1.024 0.01-1.528 0.025v-3.073h-1.649v3.152c-1.056 0.068-2.079 0.166-3.055 0.297v-3.014h-1.648v3.275c-0.542 0.097-1.071 0.201-1.575 0.316 0 0-1.414 0.588-1.481 0.586v-3.15h-1.648v2.996" fill="none" stroke="#231f20" stroke-linecap="round" stroke-linejoin="round" stroke-width=".591"/></g><g transform="translate(239.1 104.23)"><path d="m0 0v2.995h-1.648v-3.15c-0.067-1e-3 -0.133-5e-3 -0.201-5e-3 0 0-2.314 0.811-2.855 0.908v3.274h-1.648v-3.014c-0.976 0.132-2 0.229-3.056 0.297v3.152h-1.648v-3.072c-0.504 0.015-1.012 0.025-1.528 0.025s-1.024-0.01-1.528-0.025v3.072h-1.649v-3.152c-1.056-0.068-2.079-0.165-3.055-0.297v3.014h-1.648v-3.274c-0.542-0.097-1.071-0.201-1.575-0.317 0 0-1.414-0.587-1.481-0.586v3.15h-1.648v-2.995" fill="none" stroke="#231f20" stroke-linecap="round" stroke-linejoin="round" stroke-width=".591"/></g></g><path d="m211.37 234.2s1.324-4.15 1.472-4.619c-0.148-0.469-1.44-4.517-1.44-4.517s1.292-4.049 1.44-4.518c-0.148-0.468-1.44-4.517-1.44-4.517s1.292-4.048 1.44-4.517c-0.148-0.469-1.44-4.517-1.44-4.517s1.292-4.048 1.44-4.517c-0.148-0.469-1.44-4.518-1.44-4.518s1.292-4.048 1.44-4.517c-0.148-0.469-1.44-4.517-1.44-4.517s1.292-4.049 1.44-4.518c-0.148-0.469-1.44-4.517-1.44-4.517s1.292-4.047 1.44-4.517c-0.148-0.469-1.44-4.516-1.44-4.516s1.292-4.05 1.44-4.518c-0.148-0.469-1.44-4.518-1.44-4.518s1.292-4.047 1.44-4.516c-0.149-0.47-1.44-4.517-1.44-4.517s1.292-4.049 1.44-4.517c-0.148-0.469-1.44-4.518-1.44-4.518s1.291-4.049 1.44-4.518c-0.149-0.468-1.44-4.516-1.44-4.516s1.292-4.049 1.44-4.518c-0.148-0.469-1.44-4.517-1.44-4.517s1.292-4.049 1.44-4.518c-0.148-0.469-1.44-4.516-1.44-4.516s1.324-4.153 1.453-4.558c-0.092-0.413-1.08-4.859-1.08-4.859l1.816 0.22 0.01-0.027s0.014 0.059 0.014 0.06c0.11 0.16 1.042 4.687 1.042 4.687s-1.277 4.008-1.427 4.477c0.15 0.469 1.44 4.516 1.44 4.516s-1.29 4.049-1.44 4.518c0.15 0.469 1.44 4.517 1.44 4.517s-1.29 4.049-1.44 4.518c0.15 0.469 1.44 4.516 1.44 4.516s-1.29 4.049-1.44 4.518c0.15 0.468 1.44 4.518 1.44 4.518s-1.29 4.048-1.44 4.517c0.15 0.469 1.44 4.517 1.44 4.517s-1.29 4.047-1.44 4.516c0.15 0.47 1.44 4.518 1.44 4.518s-1.29 4.049-1.44 4.518c0.15 0.468 1.44 4.516 1.44 4.516s-1.29 4.048-1.44 4.517c0.15 0.469 1.44 4.517 1.44 4.517s-1.29 4.049-1.44 4.518c0.15 0.469 1.44 4.517 1.44 4.517s-1.29 4.048-1.44 4.517c0.15 0.469 1.44 4.518 1.44 4.518s-1.29 4.048-1.44 4.517c0.15 0.469 1.44 4.517 1.44 4.517s-1.29 4.048-1.44 4.517c0.15 0.469 1.44 4.517 1.44 4.517s-1.29 4.049-1.44 4.518c0.15 0.468 1.44 4.517 1.44 4.517s-1.21 3.796-1.407 4.416c0.233 0.405 0.922 1.624 1.116 1.966-0.596 0.058-1.184 0.12-1.755 0.186z" fill="url(#o)"/><path d="m216.72 234.13s1.302-4.078 1.451-4.547c-0.149-0.469-1.44-4.517-1.44-4.517s1.291-4.049 1.44-4.518c-0.149-0.468-1.44-4.517-1.44-4.517s1.29-4.048 1.44-4.517c-0.149-0.469-1.44-4.517-1.44-4.517s1.291-4.048 1.44-4.517c-0.149-0.469-1.44-4.518-1.44-4.518s1.29-4.048 1.44-4.517c-0.15-0.469-1.44-4.517-1.44-4.517s1.291-4.049 1.44-4.518c-0.149-0.469-1.44-4.517-1.44-4.517s1.291-4.047 1.44-4.517c-0.15-0.469-1.44-4.516-1.44-4.516s1.291-4.05 1.44-4.518c-0.149-0.469-1.44-4.518-1.44-4.518s1.29-4.047 1.44-4.516c-0.15-0.47-1.44-4.517-1.44-4.517s1.291-4.049 1.44-4.517c-0.149-0.469-1.44-4.518-1.44-4.518s1.29-4.049 1.44-4.518c-0.15-0.468-1.44-4.516-1.44-4.516s1.291-4.049 1.44-4.518c-0.149-0.469-1.44-4.517-1.44-4.517s1.291-4.049 1.44-4.518c-0.149-0.469-1.44-4.516-1.44-4.516s1.324-4.153 1.452-4.558c-0.091-0.413-0.953-3.668-0.953-3.668l2.019 0.098 0.736 3.651s-1.277 4.008-1.427 4.477c0.15 0.469 1.44 4.516 1.44 4.516s-1.291 4.049-1.44 4.518c0.149 0.469 1.44 4.517 1.44 4.517s-1.291 4.049-1.44 4.518c0.149 0.469 1.44 4.516 1.44 4.516s-1.291 4.049-1.44 4.518c0.149 0.468 1.44 4.518 1.44 4.518s-1.29 4.048-1.44 4.517c0.15 0.469 1.44 4.517 1.44 4.517s-1.291 4.047-1.44 4.516c0.149 0.47 1.44 4.518 1.44 4.518s-1.291 4.049-1.44 4.518c0.149 0.468 1.44 4.516 1.44 4.516s-1.291 4.048-1.44 4.517c0.149 0.469 1.44 4.517 1.44 4.517s-1.291 4.049-1.44 4.518c0.149 0.469 1.44 4.517 1.44 4.517s-1.291 4.048-1.44 4.517c0.149 0.469 1.44 4.518 1.44 4.518s-1.291 4.048-1.44 4.517c0.149 0.469 1.44 4.517 1.44 4.517s-1.291 4.048-1.44 4.517c0.149 0.469 1.44 4.517 1.44 4.517s-1.291 4.049-1.44 4.518c0.149 0.468 1.44 4.517 1.44 4.517l-1.43 4.487 0.488 0.992-0.442-0.01-0.212 0.108-0.066 0.181-3e-3 0.314c-0.304 0.018-0.608 0.037-0.907 0.058z" fill="url(#n)"/><path d="m222.06 234.07s1.281-4.022 1.431-4.491c-0.15-0.469-1.44-4.517-1.44-4.517s1.29-4.049 1.44-4.518c-0.15-0.468-1.44-4.517-1.44-4.517s1.29-4.048 1.44-4.517c-0.15-0.469-1.44-4.517-1.44-4.517s1.29-4.048 1.44-4.517c-0.15-0.469-1.44-4.518-1.44-4.518s1.29-4.048 1.44-4.517c-0.15-0.469-1.44-4.517-1.44-4.517s1.29-4.049 1.44-4.518c-0.15-0.469-1.44-4.517-1.44-4.517s1.29-4.047 1.44-4.517c-0.15-0.469-1.44-4.516-1.44-4.516s1.29-4.05 1.44-4.518c-0.15-0.469-1.44-4.518-1.44-4.518s1.29-4.047 1.44-4.516c-0.15-0.47-1.44-4.517-1.44-4.517s1.29-4.049 1.44-4.517c-0.15-0.469-1.44-4.518-1.44-4.518s1.29-4.049 1.44-4.518c-0.15-0.468-1.44-4.516-1.44-4.516s1.29-4.049 1.44-4.518c-0.15-0.469-1.44-4.517-1.44-4.517s1.29-4.049 1.44-4.518c-0.15-0.469-1.44-4.516-1.44-4.516s1.327-4.163 1.454-4.561c-0.086-0.404-0.823-3.175-0.823-3.175h1.864l0.758 3.263s-1.276 4.004-1.426 4.473c0.15 0.469 1.441 4.516 1.441 4.516s-1.291 4.049-1.441 4.518c0.15 0.469 1.441 4.517 1.441 4.517s-1.291 4.049-1.441 4.518c0.15 0.469 1.441 4.516 1.441 4.516s-1.291 4.049-1.441 4.518c0.15 0.468 1.441 4.518 1.441 4.518s-1.291 4.048-1.441 4.517c0.15 0.469 1.441 4.517 1.441 4.517s-1.291 4.047-1.441 4.516c0.15 0.47 1.441 4.518 1.441 4.518s-1.291 4.049-1.441 4.518c0.15 0.468 1.441 4.516 1.441 4.516s-1.291 4.048-1.441 4.517c0.15 0.469 1.441 4.517 1.441 4.517s-1.291 4.049-1.441 4.518c0.15 0.469 1.441 4.517 1.441 4.517s-1.291 4.048-1.441 4.517c0.15 0.469 1.441 4.518 1.441 4.518s-1.291 4.048-1.441 4.517c0.15 0.469 1.441 4.517 1.441 4.517s-1.291 4.048-1.441 4.517c0.15 0.469 1.441 4.517 1.441 4.517s-1.291 4.049-1.441 4.518c0.15 0.468 1.441 4.517 1.441 4.517l-1.449 4.542 0.259 0.48-0.85-0.015-0.228 0.293-6e-3 0.575c-0.138 3e-3 -0.275 8e-3 -0.413 0.011z" fill="url(#m)"/><path d="m239.44 236.14v-0.032s0.171-0.629 0.432-0.981c-0.144-0.649-0.97-4.358-0.97-4.358s1.278-4.008 1.428-4.477c-0.15-0.469-1.44-4.517-1.44-4.517s1.29-4.049 1.44-4.518c-0.15-0.469-1.44-4.517-1.44-4.517s1.29-4.048 1.44-4.517c-0.15-0.469-1.44-4.517-1.44-4.517s1.29-4.048 1.44-4.516c-0.15-0.469-1.44-4.519-1.44-4.519s1.29-4.048 1.44-4.516c-0.15-0.47-1.44-4.517-1.44-4.517s1.29-4.049 1.44-4.518c-0.15-0.469-1.44-4.518-1.44-4.518s1.29-4.047 1.44-4.516c-0.15-0.47-1.44-4.517-1.44-4.517s1.29-4.049 1.44-4.517c-0.15-0.469-1.44-4.518-1.44-4.518s1.29-4.048 1.44-4.517c-0.15-0.469-1.44-4.517-1.44-4.517s1.29-4.048 1.44-4.517c-0.15-0.469-1.44-4.517-1.44-4.517s1.29-4.049 1.44-4.518c-0.15-0.468-1.44-4.518-1.44-4.518s1.29-4.047 1.44-4.517c-0.15-0.468-1.44-4.516-1.44-4.516s1.29-4.049 1.44-4.518c-0.15-0.468-1.44-4.517-1.44-4.517s1.177-3.692 1.393-4.371c-0.321-0.456-1.274-1.703-1.274-1.703l2.32 0.054 0.875 1.356s-1.337 4.195-1.486 4.664c0.149 0.469 1.44 4.517 1.44 4.517s-1.291 4.049-1.44 4.518c0.149 0.469 1.44 4.516 1.44 4.516s-1.291 4.049-1.44 4.517c0.149 0.469 1.44 4.518 1.44 4.518s-1.291 4.049-1.44 4.518c0.149 0.469 1.44 4.517 1.44 4.517s-1.291 4.048-1.44 4.517c0.149 0.469 1.44 4.517 1.44 4.517s-1.291 4.048-1.44 4.517c0.149 0.469 1.44 4.518 1.44 4.518s-1.291 4.048-1.44 4.517c0.149 0.469 1.44 4.517 1.44 4.517s-1.291 4.048-1.44 4.516c0.149 0.469 1.44 4.518 1.44 4.518s-1.291 4.049-1.44 4.518c0.149 0.468 1.44 4.517 1.44 4.517s-1.291 4.048-1.44 4.516c0.149 0.469 1.44 4.519 1.44 4.519s-1.291 4.047-1.44 4.516c0.149 0.469 1.44 4.517 1.44 4.517s-1.291 4.048-1.44 4.517c0.149 0.47 1.44 4.517 1.44 4.517s-1.291 4.049-1.44 4.518c0.149 0.469 1.44 4.517 1.44 4.517s-1.324 4.153-1.454 4.557c0.093 0.414 1.041 4.677 1.041 4.677l-0.546 0.838c-0.573-0.079-1.158-0.154-1.759-0.224" fill="url(#l)"/><path d="m234.68 235.71-0.022-0.535-1.079-4.403s1.278-4.008 1.427-4.477c-0.149-0.469-1.441-4.517-1.441-4.517s1.292-4.049 1.441-4.518c-0.149-0.469-1.441-4.517-1.441-4.517s1.292-4.048 1.441-4.517c-0.149-0.469-1.441-4.517-1.441-4.517s1.292-4.048 1.441-4.516c-0.149-0.469-1.441-4.519-1.441-4.519s1.292-4.048 1.441-4.516c-0.149-0.47-1.441-4.517-1.441-4.517s1.292-4.049 1.441-4.518c-0.149-0.469-1.441-4.518-1.441-4.518s1.292-4.047 1.441-4.516c-0.149-0.47-1.441-4.517-1.441-4.517s1.292-4.049 1.441-4.517c-0.149-0.469-1.441-4.518-1.441-4.518s1.292-4.048 1.441-4.517c-0.149-0.469-1.441-4.517-1.441-4.517s1.292-4.048 1.441-4.517c-0.149-0.469-1.441-4.517-1.441-4.517s1.292-4.049 1.441-4.518c-0.149-0.468-1.441-4.518-1.441-4.518s1.292-4.047 1.441-4.517c-0.149-0.468-1.441-4.516-1.441-4.516s1.292-4.049 1.441-4.518c-0.149-0.468-1.441-4.517-1.441-4.517s1.216-3.81 1.411-4.421c-0.235-0.417 1.888-0.191 1.888-0.191s-1.321 4.143-1.471 4.612c0.15 0.469 1.44 4.517 1.44 4.517s-1.29 4.049-1.44 4.518c0.15 0.469 1.44 4.516 1.44 4.516s-1.29 4.049-1.44 4.517c0.15 0.469 1.44 4.518 1.44 4.518s-1.29 4.049-1.44 4.518c0.15 0.469 1.44 4.517 1.44 4.517s-1.29 4.048-1.44 4.517c0.15 0.469 1.44 4.517 1.44 4.517s-1.29 4.048-1.44 4.517c0.15 0.469 1.44 4.518 1.44 4.518s-1.29 4.048-1.44 4.517c0.15 0.469 1.44 4.517 1.44 4.517s-1.29 4.048-1.44 4.516c0.15 0.469 1.44 4.518 1.44 4.518s-1.29 4.049-1.44 4.518c0.15 0.468 1.44 4.517 1.44 4.517s-1.29 4.048-1.44 4.516c0.15 0.469 1.44 4.519 1.44 4.519s-1.29 4.047-1.44 4.516c0.15 0.469 1.44 4.517 1.44 4.517s-1.29 4.048-1.44 4.517c0.15 0.47 1.44 4.517 1.44 4.517s-1.29 4.049-1.44 4.518c0.15 0.469 1.44 4.517 1.44 4.517s-1.323 4.153-1.452 4.557c0.055 0.247 0.695 2.898 1.205 5.006-0.625-0.054-1.26-0.104-1.906-0.148" fill="url(#k)"/><path d="m230 235.48v-0.683s-0.18-0.163-0.179-0.163l-0.506-0.016-0.893-3.913s1.109-3.943 1.259-4.412c-0.15-0.469-1.44-4.517-1.44-4.517s1.29-4.049 1.44-4.518c-0.15-0.469-1.44-4.517-1.44-4.517s1.29-4.048 1.44-4.517c-0.15-0.469-1.44-4.517-1.44-4.517s1.29-4.048 1.44-4.516c-0.15-0.469-1.44-4.519-1.44-4.519s1.29-4.048 1.44-4.516c-0.15-0.47-1.44-4.517-1.44-4.517s1.29-4.049 1.44-4.518c-0.15-0.469-1.44-4.518-1.44-4.518s1.29-4.047 1.44-4.516c-0.15-0.47-1.44-4.517-1.44-4.517s1.29-4.049 1.44-4.517c-0.15-0.469-1.44-4.518-1.44-4.518s1.29-4.048 1.44-4.517c-0.15-0.469-1.44-4.517-1.44-4.517s1.29-4.048 1.44-4.517c-0.15-0.469-1.44-4.517-1.44-4.517s1.29-4.049 1.44-4.518c-0.15-0.468-1.44-4.518-1.44-4.518s1.29-4.047 1.44-4.517c-0.15-0.468-1.44-4.516-1.44-4.516s1.29-4.049 1.44-4.518c-0.15-0.468-1.44-4.517-1.44-4.517s1.283-4.026 1.437-4.509c-0.1-0.294 1.833-0.017 1.833-0.017s-1.293 4.057-1.443 4.526c0.15 0.469 1.441 4.517 1.441 4.517s-1.291 4.049-1.441 4.518c0.15 0.469 1.441 4.516 1.441 4.516s-1.291 4.049-1.441 4.517c0.15 0.469 1.441 4.518 1.441 4.518s-1.291 4.049-1.441 4.518c0.15 0.469 1.441 4.517 1.441 4.517s-1.291 4.048-1.441 4.517c0.15 0.469 1.441 4.517 1.441 4.517s-1.291 4.048-1.441 4.517c0.15 0.469 1.441 4.518 1.441 4.518s-1.291 4.048-1.441 4.517c0.15 0.469 1.441 4.517 1.441 4.517s-1.291 4.048-1.441 4.516c0.15 0.469 1.441 4.518 1.441 4.518s-1.291 4.049-1.441 4.518c0.15 0.468 1.441 4.517 1.441 4.517s-1.291 4.048-1.441 4.516c0.15 0.469 1.441 4.519 1.441 4.519s-1.291 4.047-1.441 4.516c0.15 0.469 1.441 4.517 1.441 4.517s-1.291 4.048-1.441 4.517c0.15 0.47 1.441 4.517 1.441 4.517s-1.291 4.049-1.441 4.518c0.15 0.469 1.441 4.517 1.441 4.517s-1.324 4.153-1.454 4.557c0.055 0.248 0.59 2.719 1.012 4.666-0.354-0.013-0.709-0.026-1.067-0.036" fill="url(#j)"/></g></svg>
