<?xml version="1.0" encoding="UTF-8" standalone="no"?>
<!-- Generator: Adobe Illustrator 14.0.0, SVG Export Plug-In  -->

<svg
   xmlns:dc="http://purl.org/dc/elements/1.1/"
   xmlns:cc="http://creativecommons.org/ns#"
   xmlns:rdf="http://www.w3.org/1999/02/22-rdf-syntax-ns#"
   xmlns:svg="http://www.w3.org/2000/svg"
   xmlns="http://www.w3.org/2000/svg"
   xmlns:sodipodi="http://sodipodi.sourceforge.net/DTD/sodipodi-0.dtd"
   xmlns:inkscape="http://www.inkscape.org/namespaces/inkscape"
   version="1.1"
   x="0px"
   y="0px"
   width="505.21866"
   height="505.21866"
   viewBox="0 -0.321 505.21867 505.21876"
   enable-background="new 0 -0.321 144 120"
   xml:space="preserve"
   id="svg2"
   inkscape:version="0.48.2 r9819"
   sodipodi:docname="AJAX1.svg"><metadata
   id="metadata44"><rdf:RDF><cc:Work
       rdf:about=""><dc:format>image/svg+xml</dc:format><dc:type
         rdf:resource="http://purl.org/dc/dcmitype/StillImage" /><dc:title></dc:title></cc:Work></rdf:RDF></metadata><sodipodi:namedview
   pagecolor="#ffffff"
   bordercolor="#666666"
   borderopacity="1"
   objecttolerance="10"
   gridtolerance="10"
   guidetolerance="10"
   inkscape:pageopacity="0"
   inkscape:pageshadow="2"
   inkscape:window-width="1280"
   inkscape:window-height="1004"
   id="namedview42"
   showgrid="false"
   fit-margin-top="0"
   fit-margin-left="0"
   fit-margin-right="0"
   fit-margin-bottom="0"
   inkscape:zoom="0.9476172"
   inkscape:cx="152.23389"
   inkscape:cy="252.38022"
   inkscape:window-x="-8"
   inkscape:window-y="-8"
   inkscape:window-maximized="1"
   inkscape:current-layer="svg2" />
<defs
   id="defs4">
</defs>


















<path
   inkscape:connector-curvature="0"
   d="m 1.0031129,463.18828 0,-421.778616 c 0,-22.508106 18.2077511,-40.715862 40.7096061,-40.715862 l 421.784851,0 c 22.50187,0 40.70958,18.207756 40.70958,40.715862 l 0,421.778616 c 0,22.5081 -18.20771,40.7096 -40.70958,40.7096 l -421.784851,0 c -22.501855,0 -40.7096061,-18.2015 -40.7096061,-40.7096 z"
   style="fill:#ffffff;stroke:#000000;stroke-width:2.00016522;stroke-linecap:butt;stroke-linejoin:miter;stroke-miterlimit:10;stroke-opacity:1;stroke-dasharray:none"
   id="path3055" /><path
   inkscape:connector-curvature="0"
   d="m 7.8305259,462.42831 c 0,18.96407 15.1700001,34.13406 34.1340641,34.13406 l 421.52858,0 c 18.46403,0 33.63404,-15.16999 33.63404,-34.13406 l 0,-421.528588 c 0,-18.457772 -15.17001,-33.627778 -33.63404,-33.627778 l -421.52858,0 c -18.964064,0 -34.1340641,15.170006 -34.1340641,33.627778 l 0,421.528588 z"
   style="fill:#000000;fill-opacity:1;fill-rule:nonzero;stroke:none"
   id="path3059" /><path
   inkscape:connector-curvature="0"
   d="m 20.474018,462.42831 0,-421.528588 c 0,-11.632209 9.607042,-21.239251 21.495522,-21.239251 l 421.52859,0 c 11.6322,0 21.23925,9.607042 21.23925,21.239251 l 0,421.528588 c 0,11.88223 -9.60705,21.49552 -21.23925,21.49552 l -421.52859,0 c -11.88848,0 -21.495522,-9.61329 -21.495522,-21.49552"
   style="fill:#ffffff;fill-opacity:1;fill-rule:nonzero;stroke:none"
   id="path3063" /><path
   inkscape:connector-curvature="0"
   d="m 408.36997,96.53052 c -85.96961,-85.975855 -225.04983,-85.975855 -311.025714,0 -85.719568,85.97586 -85.719568,225.04986 0,311.02572 85.975884,85.71956 225.056104,85.71956 311.025714,0 85.97586,-85.97586 85.97586,-225.04986 0,-311.02572"
   style="fill:#c0111e;fill-opacity:1;fill-rule:nonzero;stroke:none"
   id="path3067" /><path
   inkscape:connector-curvature="0"
   d="m 376.00345,128.8988 c 64.73659,64.48033 68.01811,167.14507 9.8633,235.66948 l -245.5328,-245.5328 c 68.52443,-58.1548 171.18916,-54.87328 235.6695,9.86332"
   style="fill:#ffffff;fill-opacity:1;fill-rule:nonzero;stroke:none"
   id="path3071" /><path
   inkscape:connector-curvature="0"
   d="M 365.13129,385.05247 C 296.60688,443.21353 194.19216,439.92576 129.71182,375.18916 64.981488,310.70883 61.693716,208.0441 119.84851,139.51968 l 245.28278,245.53279 z"
   style="fill:#ffffff;fill-opacity:1;fill-rule:nonzero;stroke:none"
   id="path3075" /><path
   inkscape:connector-curvature="0"
   d="m 310.2592,288.70951 c 5.56296,-7.08184 14.15743,-11.63221 24.02074,-11.63221 16.94515,0 30.59628,13.65738 30.85255,30.34626 l 21.74555,0 0,-135.79248 -185.60284,0 0,8.09442 108.984,108.98401 z"
   style="fill:#000000;fill-opacity:1;fill-rule:nonzero;stroke:none"
   id="path3079" /><path
   inkscape:connector-curvature="0"
   d="m 192.17077,241.67632 -35.40297,0 c -1.2626,0 -2.5252,-0.75631 -3.28777,-1.7689 -1.00633,-1.01258 -1.2626,-2.27518 -1.00633,-3.54404 l 6.56929,-28.32109 c 0.25652,-0.50004 0.76256,-1.2626 1.26886,-1.51262 0.50628,-0.50629 1.2626,-0.76256 2.01891,-0.76256 l 23.52074,-0.25003 -8.09447,-8.09442 -15.93256,0 c -2.52521,0.25628 -5.05667,1.01259 -6.82556,2.78148 -1.7689,1.51887 -3.0315,3.54405 -3.53779,5.81924 l -7.08184,30.34 c -0.50629,1.51888 -1.2626,3.03776 -2.53145,3.79407 -1.00634,1.01258 -2.78148,1.51887 -4.29411,1.51887 l -19.72663,0 c -1.01258,0 -2.27518,0.50629 -3.0315,1.26261 -0.50629,0.76256 -1.01258,1.76889 -1.01258,2.78148 l 0,50.06663 -5.81923,0 0,12.39478 10.8759,0 c -0.25652,-16.94515 13.4011,-30.85255 30.59627,-31.10257 16.94514,0 30.85254,13.40111 30.85254,30.59628 l 107.72142,0 -95.83914,-95.83918 0,29.83997 z"
   style="fill:#000000;fill-opacity:1;fill-rule:nonzero;stroke:none"
   id="path3083" /><path
   inkscape:connector-curvature="0"
   d="m 149.4366,282.64081 c -13.65738,0 -24.78329,11.12592 -24.78329,24.78329 0,13.65113 11.12591,25.03332 24.78329,25.03332 13.65738,0 24.7833,-11.38219 24.7833,-25.03332 0,-13.65737 -11.12592,-24.78329 -24.7833,-24.78329"
   style="fill:#000000;fill-opacity:1;fill-rule:nonzero;stroke:none"
   id="path3087" /><path
   inkscape:connector-curvature="0"
   d="m 334.28064,282.64081 c -8.34444,0 -15.42627,4.04408 -19.97665,10.11333 l 34.64037,34.64662 c 6.06925,-4.55663 10.11959,-11.63222 10.11959,-19.97666 0,-13.65737 -11.12592,-24.78329 -24.78331,-24.78329"
   style="fill:#000000;fill-opacity:1;fill-rule:nonzero;stroke:none"
   id="path3091" /></svg>