<svg width="158.99" height="78.169" version="1.1" viewBox="0 0 158.98987 78.169067" xmlns="http://www.w3.org/2000/svg"><defs><clipPath id="aj"><path d="m191 181.65h120.3v59.35h-120.3z"/></clipPath><linearGradient id="y" x2="1" gradientTransform="matrix(.55808 22.602 22.602 -.55808 219.5 199.68)" gradientUnits="userSpaceOnUse"><stop stop-color="#216242" offset="0"/><stop stop-color="#172f23" offset=".73426"/><stop stop-color="#172f23" offset="1"/></linearGradient><clipPath id="ai"><path d="m191 181.65h120.3v59.35h-120.3z"/></clipPath><linearGradient id="x" x2="1" gradientTransform="matrix(.55808 22.602 22.602 -.55808 251.03 199.68)" gradientUnits="userSpaceOnUse"><stop stop-color="#216242" offset="0"/><stop stop-color="#172f23" offset=".73426"/><stop stop-color="#172f23" offset="1"/></linearGradient><clipPath id="ah"><path d="m191 181.65h120.3v59.35h-120.3z"/></clipPath><radialGradient id="d" cx="0" cy="0" r="1" gradientTransform="matrix(12.742 0 0 -12.742 250.63 212.04)" gradientUnits="userSpaceOnUse"><stop stop-color="#fef18d" offset="0"/><stop stop-color="#feeb03" offset=".25414"/><stop stop-color="#f25828" offset=".85402"/><stop stop-color="#f25828" offset="1"/></radialGradient><clipPath id="ag"><path d="m191 181.65h120.3v59.35h-120.3z"/></clipPath><linearGradient id="w" x2="1" gradientTransform="matrix(.55808 22.602 22.602 -.55808 282.56 199.68)" gradientUnits="userSpaceOnUse"><stop stop-color="#216242" offset="0"/><stop stop-color="#172f23" offset=".73426"/><stop stop-color="#172f23" offset="1"/></linearGradient><clipPath id="af"><path d="m191 181.65h120.3v59.35h-120.3z"/></clipPath><linearGradient id="v" x2="1" gradientTransform="matrix(-.20343 7.3307 7.3307 .20343 228.24 212.61)" gradientUnits="userSpaceOnUse"><stop stop-color="#12814c" offset="0"/><stop stop-color="#12814c" offset=".038336"/><stop stop-color="#225e57" offset=".53933"/><stop stop-color="#0b150f" offset="1"/></linearGradient><clipPath id="ae"><path d="m191 181.65h120.3v59.35h-120.3z"/></clipPath><linearGradient id="u" x2="1" gradientTransform="matrix(.50903 -3.0545 -3.0545 -.50903 212.28 220.88)" gradientUnits="userSpaceOnUse"><stop stop-color="#1e6847" offset="0"/><stop stop-color="#1e6847" offset=".04193"/><stop stop-color="#225e57" offset=".58989"/><stop stop-color="#19422d" offset="1"/></linearGradient><clipPath id="ad"><path d="m191 181.65h120.3v59.35h-120.3z"/></clipPath><linearGradient id="t" x2="1" gradientTransform="matrix(-.20343 7.3307 7.3307 .20343 259.7 212.61)" gradientUnits="userSpaceOnUse"><stop stop-color="#12814c" offset="0"/><stop stop-color="#225e57" offset=".26502"/><stop stop-color="#225e57" offset=".53933"/><stop stop-color="#0b150f" offset="1"/></linearGradient><clipPath id="ac"><path d="m191 181.65h120.3v59.35h-120.3z"/></clipPath><linearGradient id="s" x2="1" gradientTransform="matrix(.50903 -3.0545 -3.0545 -.50903 243.75 220.88)" gradientUnits="userSpaceOnUse"><stop stop-color="#1e6847" offset="0"/><stop stop-color="#1e6847" offset=".04193"/><stop stop-color="#225e57" offset=".58989"/><stop stop-color="#19422d" offset="1"/></linearGradient><clipPath id="ab"><path d="m191 181.65h120.3v59.35h-120.3z"/></clipPath><linearGradient id="r" x2="1" gradientTransform="matrix(-.20343 7.3307 7.3307 .20343 291.3 212.61)" gradientUnits="userSpaceOnUse"><stop stop-color="#12814c" offset="0"/><stop stop-color="#12814c" offset=".038336"/><stop stop-color="#225e57" offset=".53933"/><stop stop-color="#091b10" offset="1"/></linearGradient><clipPath id="aa"><path d="m191 181.65h120.3v59.35h-120.3z"/></clipPath><linearGradient id="q" x2="1" gradientTransform="matrix(.50903 -3.0545 -3.0545 -.50903 275.35 220.88)" gradientUnits="userSpaceOnUse"><stop stop-color="#1e6847" offset="0"/><stop stop-color="#1e6847" offset=".04193"/><stop stop-color="#225e57" offset=".58989"/><stop stop-color="#19422d" offset="1"/></linearGradient><clipPath id="z"><path d="m191 181.65h120.3v59.35h-120.3z"/></clipPath><linearGradient id="p" x2="1" gradientTransform="matrix(-3e-7 7.5037 7.5037 3e-7 250.5 226.91)" gradientUnits="userSpaceOnUse"><stop stop-color="#fff" offset="0"/><stop stop-color="#fff" offset=".044944"/><stop stop-color="#fab80b" offset=".81804"/><stop stop-color="#fab80b" offset="1"/></linearGradient><linearGradient id="o" x2="1" gradientTransform="matrix(-3.7514 6.4981 6.4981 3.7514 242.62 224.91)" gradientUnits="userSpaceOnUse"><stop stop-color="#fff" offset="0"/><stop stop-color="#fff" offset=".044944"/><stop stop-color="#fab80b" offset=".81804"/><stop stop-color="#fab80b" offset="1"/></linearGradient><linearGradient id="n" x2="1" gradientTransform="matrix(-6.4981 3.7514 3.7514 6.4981 236.69 219.2)" gradientUnits="userSpaceOnUse"><stop stop-color="#fff" offset="0"/><stop stop-color="#fff" offset=".044944"/><stop stop-color="#fab80b" offset=".81804"/><stop stop-color="#fab80b" offset="1"/></linearGradient><linearGradient id="m" x2="1" gradientTransform="matrix(-7.5037 -3e-7 -3e-7 7.5037 234.95 211.19)" gradientUnits="userSpaceOnUse"><stop stop-color="#fff" offset="0"/><stop stop-color="#fff" offset=".044944"/><stop stop-color="#fab80b" offset=".81804"/><stop stop-color="#fab80b" offset="1"/></linearGradient><linearGradient id="l" x2="1" gradientTransform="matrix(-6.4981 -3.7514 -3.7514 6.4981 236.96 203.31)" gradientUnits="userSpaceOnUse"><stop stop-color="#fff" offset="0"/><stop stop-color="#fff" offset=".044944"/><stop stop-color="#fab80b" offset=".81804"/><stop stop-color="#fab80b" offset="1"/></linearGradient><linearGradient id="k" x2="1" gradientTransform="matrix(-3.7514 -6.4981 -6.4981 3.7514 242.66 197.39)" gradientUnits="userSpaceOnUse"><stop stop-color="#fff" offset="0"/><stop stop-color="#fff" offset=".044944"/><stop stop-color="#fab80b" offset=".81804"/><stop stop-color="#fab80b" offset="1"/></linearGradient><linearGradient id="j" x2="1" gradientTransform="matrix(3e-7 -7.5037 -7.5037 -3e-7 250.67 195.65)" gradientUnits="userSpaceOnUse"><stop stop-color="#fff" offset="0"/><stop stop-color="#fff" offset=".044944"/><stop stop-color="#fab80b" offset=".81804"/><stop stop-color="#fab80b" offset="1"/></linearGradient><linearGradient id="i" x2="1" gradientTransform="matrix(3.7514 -6.4981 -6.4981 -3.7514 258.55 197.65)" gradientUnits="userSpaceOnUse"><stop stop-color="#fff" offset="0"/><stop stop-color="#fff" offset=".044944"/><stop stop-color="#fab80b" offset=".81804"/><stop stop-color="#fab80b" offset="1"/></linearGradient><linearGradient id="h" x2="1" gradientTransform="matrix(6.4981 -3.7514 -3.7514 -6.4981 264.47 203.36)" gradientUnits="userSpaceOnUse"><stop stop-color="#fff" offset="0"/><stop stop-color="#fff" offset=".044944"/><stop stop-color="#fab80b" offset=".81804"/><stop stop-color="#fab80b" offset="1"/></linearGradient><linearGradient id="g" x2="1" gradientTransform="matrix(7.5037 3e-7 3e-7 -7.5037 266.21 211.36)" gradientUnits="userSpaceOnUse"><stop stop-color="#fff" offset="0"/><stop stop-color="#fff" offset=".044944"/><stop stop-color="#fab80b" offset=".81804"/><stop stop-color="#fab80b" offset="1"/></linearGradient><linearGradient id="f" x2="1" gradientTransform="matrix(6.4981 3.7514 3.7514 -6.4981 264.21 219.25)" gradientUnits="userSpaceOnUse"><stop stop-color="#fff" offset="0"/><stop stop-color="#fff" offset=".044944"/><stop stop-color="#fab80b" offset=".81804"/><stop stop-color="#fab80b" offset="1"/></linearGradient><linearGradient id="e" x2="1" gradientTransform="matrix(3.7514 6.4981 6.4981 -3.7514 258.5 225.17)" gradientUnits="userSpaceOnUse"><stop stop-color="#fff" offset="0"/><stop stop-color="#fff" offset=".044944"/><stop stop-color="#fab80b" offset=".81804"/><stop stop-color="#fab80b" offset="1"/></linearGradient><radialGradient id="c" cx="0" cy="0" r="1" gradientTransform="matrix(10.996 0 0 -10.996 282.34 212.07)" gradientUnits="userSpaceOnUse"><stop stop-color="#00a650" offset="0"/><stop stop-color="#007b39" offset=".19544"/><stop stop-color="#007b39" offset=".26519"/><stop stop-color="#20342b" offset="1"/></radialGradient><radialGradient id="b" cx="0" cy="0" r="1" gradientTransform="matrix(6.7285 0 0 -6.7285 218.38 212.08)" gradientUnits="userSpaceOnUse"><stop stop-color="#ed1c24" offset="0"/><stop stop-color="#b2141a" offset=".22593"/><stop stop-color="#b2141a" offset=".25414"/><stop stop-color="#6f1d21" offset=".82683"/><stop stop-color="#6f1d21" offset="1"/></radialGradient><radialGradient id="a" cx="0" cy="0" r="1" gradientTransform="matrix(12.16 0 0 -12.16 250.54 211.57)" gradientUnits="userSpaceOnUse"><stop stop-color="#fff" offset="0"/><stop stop-color="#fff" offset=".044944"/><stop stop-color="#fcd10c" offset=".93012"/><stop stop-color="#fcd10c" offset="1"/></radialGradient></defs><g transform="matrix(1.3333 0 0 -1.3333 -255.37 320.63)"><g clip-path="url(#aj)"><g transform="translate(196.65 240)"><path d="m0 0c-2.726 0-4.935-2.209-4.935-4.934v-48.106c0-2.726 2.209-4.935 4.935-4.935h107.02c2.726 0 6.394 0.682 6.873 5.29l-1.938 46.035c0 2.725-2.209 4.934-4.935 4.934z" fill="#8c5420"/></g><g transform="translate(196.65 240)"><path d="m0 0c-2.726 0-4.935-2.209-4.935-4.934v-48.106c0-2.726 2.209-4.935 4.935-4.935h107.02c2.726 0 6.394 0.682 6.873 5.29l-1.938 46.035c0 2.725-2.209 4.934-4.935 4.934z" fill="none" stroke="#231f20" stroke-linecap="round" stroke-linejoin="round" stroke-width=".37"/></g><g transform="translate(198.03 240.29)"><path d="m0 0c-2.39 0-4.328-1.938-4.328-4.329v-47.601c0-2.39 1.938-4.328 4.328-4.328h108.23c2.391 0 4.33 1.938 4.33 4.328v47.601c0 2.391-1.939 4.329-4.33 4.329z" fill="#fab215"/></g><g transform="translate(198.03 240.29)"><path d="m0 0c-2.39 0-4.328-1.938-4.328-4.329v-47.601c0-2.39 1.938-4.328 4.328-4.328h108.23c2.391 0 4.33 1.938 4.33 4.328v47.601c0 2.391-1.939 4.329-4.33 4.329z" fill="none" stroke="#231f20" stroke-linecap="round" stroke-linejoin="round" stroke-width=".37"/></g><g transform="translate(233.7 199.06)"><path d="m0 0c0-1.243-1.008-2.251-2.25-2.251h-25.634c-1.243 0-2.251 1.008-2.251 2.251v25.935c0 1.243 0.937 2.616 2.18 2.616l25.705-0.666c1.242 0 2.25-1.008 2.25-2.251z" fill="#231f20"/></g><g transform="translate(233.7 199.06)"><path d="m0 0c0-1.243-1.008-2.251-2.25-2.251h-25.634c-1.243 0-2.251 1.008-2.251 2.251v25.935c0 1.243 0.937 2.616 2.18 2.616l25.705-0.666c1.242 0 2.25-1.008 2.25-2.251z" fill="none" stroke="#231f20" stroke-linecap="round" stroke-linejoin="round" stroke-width=".37"/></g></g><path d="m206.92 227.7c-1.196 0-2.164-0.969-2.164-2.165v-25.807c0-1.194 0.968-2.164 2.164-2.164h25.806c1.196 0 2.166 0.97 2.166 2.164v25.807c0 1.196-0.97 2.165-2.166 2.165z" fill="url(#y)"/><g clip-path="url(#ai)"><g transform="translate(206.92 197.56)"><path d="m0 0c-1.196 0-2.164 0.97-2.164 2.164v25.807c0 1.195 0.968 2.164 2.164 2.164h25.806c1.196 0 2.165-0.969 2.165-2.164v-25.807c0-1.194-0.969-2.164-2.165-2.164z" fill="none" stroke="#231f20" stroke-linecap="round" stroke-linejoin="round" stroke-width=".37"/></g><g transform="translate(206.54 212.04)"><path d="m0 0c0 6.935 5.622 12.557 12.557 12.557 6.936 0 12.558-5.622 12.558-12.557 0-6.936-5.622-12.558-12.558-12.558-6.935 0-12.557 5.622-12.557 12.558" fill="#522529"/></g><g transform="translate(206.54 212.04)"><path d="m0 0c0 6.935 5.622 12.557 12.557 12.557 6.936 0 12.558-5.622 12.558-12.557 0-6.936-5.622-12.558-12.558-12.558-6.935 0-12.557 5.622-12.557 12.558z" fill="none" stroke="#231f20" stroke-linecap="round" stroke-linejoin="round" stroke-width=".37"/></g><g transform="translate(265.23 199.06)"><path d="m0 0c0-1.243-1.008-2.251-2.25-2.251h-25.634c-1.243 0-2.251 1.008-2.251 2.251v25.935c0 1.243 0.937 2.616 2.181 2.616l25.704-0.666c1.242 0 2.25-1.008 2.25-2.251z" fill="#231f20"/></g><g transform="translate(265.23 199.06)"><path d="m0 0c0-1.243-1.008-2.251-2.25-2.251h-25.634c-1.243 0-2.251 1.008-2.251 2.251v25.935c0 1.243 0.937 2.616 2.181 2.616l25.704-0.666c1.242 0 2.25-1.008 2.25-2.251z" fill="none" stroke="#231f20" stroke-linecap="round" stroke-linejoin="round" stroke-width=".37"/></g></g><path d="m238.45 227.7c-1.196 0-2.165-0.969-2.165-2.165v-25.807c0-1.194 0.969-2.164 2.165-2.164h25.805c1.196 0 2.165 0.97 2.165 2.164v25.807c0 1.196-0.969 2.165-2.165 2.165z" fill="url(#x)"/><g clip-path="url(#ah)"><g transform="translate(238.45 197.56)"><path d="m0 0c-1.196 0-2.164 0.97-2.164 2.164v25.807c0 1.195 0.968 2.164 2.164 2.164h25.806c1.196 0 2.165-0.969 2.165-2.164v-25.807c0-1.194-0.969-2.164-2.165-2.164z" fill="none" stroke="#231f20" stroke-linecap="round" stroke-linejoin="round" stroke-width=".37"/></g></g><path d="m238.07 212.04c0-6.935 5.623-12.557 12.558-12.557s12.557 5.622 12.557 12.557c0 6.936-5.622 12.557-12.557 12.557s-12.558-5.621-12.558-12.557" fill="url(#d)"/><g clip-path="url(#ag)"><g transform="translate(238.07 212.04)"><path d="m0 0c0 6.935 5.622 12.557 12.557 12.557 6.936 0 12.558-5.622 12.558-12.557 0-6.936-5.622-12.558-12.558-12.558-6.935 0-12.557 5.622-12.557 12.558z" fill="none" stroke="#231f20" stroke-linecap="round" stroke-linejoin="round" stroke-width=".37"/></g><g transform="translate(296.76 199.06)"><path d="m0 0c0-1.243-1.008-2.251-2.25-2.251h-25.634c-1.244 0-2.251 1.008-2.251 2.251v25.935c0 1.243 0.937 2.616 2.18 2.616l25.705-0.666c1.242 0 2.25-1.008 2.25-2.251z" fill="#231f20"/></g><g transform="translate(296.76 199.06)"><path d="m0 0c0-1.243-1.008-2.251-2.25-2.251h-25.634c-1.244 0-2.251 1.008-2.251 2.251v25.935c0 1.243 0.937 2.616 2.18 2.616l25.705-0.666c1.242 0 2.25-1.008 2.25-2.251z" fill="none" stroke="#231f20" stroke-linecap="round" stroke-linejoin="round" stroke-width=".37"/></g></g><path d="m269.98 227.7c-1.195 0-2.163-0.969-2.163-2.165v-25.807c0-1.194 0.968-2.164 2.163-2.164h25.807c1.195 0 2.165 0.97 2.165 2.164v25.807c0 1.196-0.97 2.165-2.165 2.165z" fill="url(#w)"/><g clip-path="url(#af)"><g transform="translate(269.98 197.56)"><path d="m0 0c-1.196 0-2.164 0.97-2.164 2.164v25.807c0 1.195 0.968 2.164 2.164 2.164h25.806c1.196 0 2.165-0.969 2.165-2.164v-25.807c0-1.194-0.969-2.164-2.165-2.164z" fill="none" stroke="#231f20" stroke-linecap="round" stroke-linejoin="round" stroke-width=".37"/></g><g transform="translate(269.61 212.04)"><path d="m0 0c0 6.935 5.622 12.557 12.557 12.557s12.558-5.622 12.558-12.557c0-6.936-5.623-12.558-12.558-12.558s-12.557 5.622-12.557 12.558" fill="#0c2617"/></g><g transform="translate(269.61 212.04)"><path d="m0 0c0 6.935 5.622 12.557 12.557 12.557s12.558-5.622 12.558-12.557c0-6.936-5.623-12.558-12.558-12.558s-12.557 5.622-12.557 12.558z" fill="none" stroke="#231f20" stroke-linecap="round" stroke-linejoin="round" stroke-width=".37"/></g></g><path d="m218.93 224.41c0.045 1e-3 0.09 3e-3 0.135 3e-3 6.832 0 12.369-5.536 12.369-12.369 0-0.944-0.109-1.862-0.309-2.746 0.574 0.589 1.038 1.232 1.364 1.892v-5e-3c0.4 0.798 0.933 1.44 1.58 1.871l-9e-3 -3e-3c1.878 1.314 3.019 3.041 3.019 4.932 0 4.114-5.397 7.451-12.052 7.451-2.226 0-4.309-0.376-6.097-1.026" fill="url(#v)"/><g clip-path="url(#ae)"><g transform="translate(237.08 217.98)"><path d="m0 0c0 4.114-5.397 7.451-12.052 7.451-2.226 0-4.309-0.375-6.098-1.026 0.045 1e-3 0.09 4e-3 0.136 4e-3 6.831 0 12.37-5.538 12.37-12.37 0-0.945-0.11-1.862-0.31-2.746 0.574 0.589 1.038 1.232 1.364 1.892l-1e-3 -5e-3c0.401 0.799 0.933 1.441 1.581 1.871l-0.01-4e-3c1.879 1.314 3.02 3.042 3.02 4.933z" fill="none" stroke="#231f20" stroke-linecap="round" stroke-linejoin="round" stroke-width=".37"/></g></g><path d="m206.69 212.04c0-0.776 0.075-1.534 0.212-2.27 2.363 1.265 3.941 3.27 4.205 5.273h6e-3c0.156 0.716 0.373 1.445 0.655 2.174 1.092 2.826 2.9 5.008 4.801 6.073 0.704 0.429 1.496 0.803 2.355 1.115v1e-3c-6.769-0.074-12.234-5.581-12.234-12.366" fill="url(#u)"/><g clip-path="url(#ad)"><g transform="translate(211.11 215.05)"><path d="m0 0h6e-3c0.156 0.716 0.373 1.444 0.655 2.173 1.091 2.826 2.899 5.009 4.8 6.074 0.705 0.428 1.497 0.803 2.356 1.116-6.769-0.074-12.234-5.581-12.234-12.367 0-0.776 0.075-1.533 0.212-2.27 2.363 1.266 3.941 3.269 4.205 5.274z" fill="none" stroke="#231f20" stroke-linecap="round" stroke-linejoin="round" stroke-width=".37"/></g></g><path d="m250.39 224.41c0.045 1e-3 0.091 3e-3 0.136 3e-3 6.831 0 12.37-5.536 12.37-12.369 0-0.944-0.11-1.862-0.31-2.746 0.574 0.589 1.039 1.232 1.364 1.892v-5e-3c0.4 0.798 0.933 1.44 1.581 1.871l-0.01-3e-3c1.878 1.314 3.019 3.041 3.019 4.932 0 4.114-5.397 7.451-12.053 7.451-2.225 0-4.308-0.376-6.097-1.026" fill="url(#t)"/><g clip-path="url(#ac)"><g transform="translate(268.54 217.98)"><path d="m0 0c0 4.114-5.397 7.451-12.052 7.451-2.227 0-4.309-0.375-6.098-1.026 0.045 1e-3 0.09 4e-3 0.136 4e-3 6.831 0 12.369-5.538 12.369-12.37 0-0.945-0.109-1.862-0.31-2.746 0.575 0.589 1.039 1.232 1.365 1.892l-1e-3 -5e-3c0.401 0.799 0.933 1.441 1.581 1.871l-0.01-4e-3c1.879 1.314 3.02 3.042 3.02 4.933z" fill="none" stroke="#231f20" stroke-linecap="round" stroke-linejoin="round" stroke-width=".37"/></g></g><path d="m238.16 212.04c0-0.776 0.075-1.534 0.212-2.27 2.362 1.265 3.941 3.27 4.205 5.273h5e-3c0.157 0.716 0.374 1.445 0.656 2.174 1.091 2.826 2.899 5.008 4.8 6.073 0.705 0.429 1.496 0.803 2.356 1.116-6.77-0.073-12.234-5.58-12.234-12.366" fill="url(#s)"/><g clip-path="url(#ab)"><g transform="translate(242.57 215.05)"><path d="m0 0h6e-3c0.156 0.716 0.373 1.444 0.655 2.173 1.091 2.826 2.899 5.009 4.8 6.074 0.705 0.428 1.497 0.803 2.356 1.116-6.769-0.074-12.234-5.581-12.234-12.367 0-0.776 0.075-1.533 0.212-2.27 2.363 1.266 3.941 3.269 4.205 5.274z" fill="none" stroke="#231f20" stroke-linecap="round" stroke-linejoin="round" stroke-width=".37"/></g></g><path d="m281.99 224.41c0.045 1e-3 0.09 3e-3 0.135 3e-3 6.832 0 12.37-5.536 12.37-12.369 0-0.944-0.109-1.862-0.309-2.746 0.574 0.589 1.038 1.232 1.364 1.892l-1e-3 -5e-3c0.401 0.798 0.933 1.44 1.582 1.871l-0.011-3e-3c1.879 1.314 3.02 3.041 3.02 4.932 0 4.114-5.397 7.451-12.053 7.451-2.225 0-4.308-0.376-6.097-1.026" fill="url(#r)"/><g clip-path="url(#aa)"><g transform="translate(300.14 217.98)"><path d="m0 0c0 4.114-5.397 7.451-12.052 7.451-2.227 0-4.309-0.375-6.098-1.026 0.045 1e-3 0.09 4e-3 0.136 4e-3 6.831 0 12.369-5.538 12.369-12.37 0-0.945-0.109-1.862-0.31-2.746 0.575 0.589 1.039 1.232 1.365 1.892l-1e-3 -5e-3c0.401 0.799 0.933 1.441 1.581 1.871l-0.01-4e-3c1.879 1.314 3.02 3.042 3.02 4.933z" fill="none" stroke="#231f20" stroke-linecap="round" stroke-linejoin="round" stroke-width=".37"/></g></g><path d="m269.75 212.04c0-0.776 0.076-1.534 0.213-2.27 2.362 1.265 3.94 3.27 4.204 5.273h7e-3c0.155 0.716 0.372 1.445 0.655 2.174 1.091 2.826 2.899 5.008 4.799 6.073 0.706 0.429 1.497 0.803 2.357 1.116-6.769-0.073-12.235-5.58-12.235-12.366" fill="url(#q)"/><g clip-path="url(#z)"><g transform="translate(274.17 215.05)"><path d="m0 0h6e-3c0.156 0.716 0.373 1.444 0.655 2.173 1.091 2.826 2.899 5.009 4.8 6.074 0.705 0.428 1.497 0.803 2.356 1.116-6.769-0.074-12.234-5.581-12.234-12.367 0-0.776 0.075-1.533 0.212-2.27 2.363 1.266 3.941 3.269 4.205 5.274z" fill="none" stroke="#231f20" stroke-linecap="round" stroke-linejoin="round" stroke-width=".37"/></g></g><path d="m248.18 233.05 2.319-12.729 2.319 12.729z" fill="url(#p)"/><path d="m237.61 228.93 8.374-9.863l-4.356 12.183z" fill="url(#o)"/><path d="m230.52 220.08 12.183-4.355-9.864 8.373z" fill="url(#n)"/><path d="m228.81 208.88 12.729 2.32-12.728 2.318z" fill="url(#m)"/><path d="m230.61 202.33 2.319-4.017 9.863 8.373z" fill="url(#l)"/><path d="m237.76 193.54 4.018-2.32 4.355 12.185h-1e-3z" fill="url(#k)"/><path d="m248.35 189.51h4.638l-2.319 12.729z" fill="url(#j)"/><path d="m255.18 203.49 4.358-12.184 4.016 2.32z" fill="url(#i)"/><path d="m268.32 198.46 2.32 4.016-12.185 4.356z" fill="url(#h)"/><path d="m259.63 211.36 12.73-2.318v4.637z" fill="url(#g)"/><path d="m258.37 215.88 12.184 4.357-2.319 4.017z" fill="url(#f)"/><path d="m255.03 219.16 8.373 9.864-4.018 2.32z" fill="url(#e)"/><path d="m280.42 221.55v-13.045c-1.721 1.72-3.698 3.697-3.698 3.697l-2.398-2.396 6.701-6.703 1.199-1.198 7.791 7.79-2.398 2.397s-2.077-2.076-3.806-3.805v13.263zm0.356-13.401h2.897l-1.449-1.449c-0.382 0.381-0.893 0.893-1.448 1.449" fill="url(#c)"/><path d="m218.97 214.28-3.445 3.446-2.398-2.398 3.445-3.446-3.633-3.632 2.398-2.398 3.633 3.633 3.634-3.633 2.398 2.398-3.634 3.632 3.445 3.446-2.397 2.398z" fill="url(#b)"/><path d="m250.57 214.29-3.445 3.446-2.398-2.398 3.445-3.445-3.633-3.634 2.397-2.398 3.634 3.634 3.634-3.634 2.398 2.398-3.635 3.634 3.446 3.445-2.398 2.398z" fill="url(#a)"/></g></svg>
